<svg width="142" height="42" viewBox="0 0 1420 419" fill="none" xmlns="http://www.w3.org/2000/svg">
<path d="M0.240967 0.975952H1420V418.029H0.240967V0.975952Z" fill="url(#paint0_linear_1_1028)"/>
<g filter="url(#filter0_d_1_1028)">
<path d="M435.589 298.425L431.689 294.8C430.839 295.05 429.947 295.175 429.014 295.175C427.397 295.175 425.931 294.8 424.614 294.05C423.297 293.283 422.256 292.225 421.489 290.875C420.739 289.508 420.364 287.967 420.364 286.25C420.364 284.533 420.739 283 421.489 281.65C422.256 280.283 423.297 279.225 424.614 278.475C425.931 277.708 427.397 277.325 429.014 277.325C430.647 277.325 432.122 277.708 433.439 278.475C434.756 279.225 435.789 280.283 436.539 281.65C437.289 283 437.664 284.533 437.664 286.25C437.664 288.017 437.272 289.592 436.489 290.975C435.706 292.342 434.631 293.392 433.264 294.125L437.939 298.425H435.589ZM422.164 286.25C422.164 287.733 422.464 289.042 423.064 290.175C423.664 291.292 424.481 292.15 425.514 292.75C426.547 293.35 427.714 293.65 429.014 293.65C430.314 293.65 431.481 293.35 432.514 292.75C433.547 292.15 434.364 291.292 434.964 290.175C435.564 289.042 435.864 287.733 435.864 286.25C435.864 284.767 435.564 283.467 434.964 282.35C434.364 281.233 433.547 280.375 432.514 279.775C431.481 279.175 430.314 278.875 429.014 278.875C427.714 278.875 426.547 279.175 425.514 279.775C424.481 280.375 423.664 281.233 423.064 282.35C422.464 283.467 422.164 284.767 422.164 286.25ZM452.716 281.35V295H450.966V292.6C450.566 293.45 449.949 294.1 449.116 294.55C448.282 295 447.349 295.225 446.316 295.225C444.682 295.225 443.349 294.725 442.316 293.725C441.282 292.708 440.766 291.242 440.766 289.325V281.35H442.491V289.125C442.491 290.608 442.857 291.742 443.591 292.525C444.341 293.308 445.357 293.7 446.641 293.7C447.957 293.7 449.007 293.283 449.791 292.45C450.574 291.617 450.966 290.392 450.966 288.775V281.35H452.716ZM462.686 295.2C461.403 295.2 460.244 294.917 459.211 294.35C458.194 293.767 457.386 292.95 456.786 291.9C456.203 290.833 455.911 289.592 455.911 288.175C455.911 286.758 456.211 285.525 456.811 284.475C457.411 283.408 458.228 282.592 459.261 282.025C460.294 281.442 461.453 281.15 462.736 281.15C464.019 281.15 465.178 281.442 466.211 282.025C467.261 282.592 468.078 283.408 468.661 284.475C469.261 285.525 469.561 286.758 469.561 288.175C469.561 289.575 469.261 290.808 468.661 291.875C468.061 292.942 467.236 293.767 466.186 294.35C465.136 294.917 463.969 295.2 462.686 295.2ZM462.686 293.675C463.586 293.675 464.419 293.475 465.186 293.075C465.953 292.658 466.569 292.042 467.036 291.225C467.519 290.392 467.761 289.375 467.761 288.175C467.761 286.975 467.528 285.967 467.061 285.15C466.594 284.317 465.978 283.7 465.211 283.3C464.444 282.883 463.611 282.675 462.711 282.675C461.811 282.675 460.978 282.883 460.211 283.3C459.444 283.7 458.828 284.317 458.361 285.15C457.911 285.967 457.686 286.975 457.686 288.175C457.686 289.375 457.911 290.392 458.361 291.225C458.828 292.042 459.436 292.658 460.186 293.075C460.953 293.475 461.786 293.675 462.686 293.675ZM475.026 282.825V291.3C475.026 292.133 475.184 292.708 475.501 293.025C475.818 293.342 476.376 293.5 477.176 293.5H478.776V295H476.901C475.668 295 474.751 294.717 474.151 294.15C473.551 293.567 473.251 292.617 473.251 291.3V282.825H471.351V281.35H473.251V277.925H475.026V281.35H478.776V282.825H475.026ZM494.012 287.475C494.012 288.075 493.995 288.533 493.962 288.85H482.637C482.687 289.883 482.937 290.767 483.387 291.5C483.837 292.233 484.429 292.792 485.162 293.175C485.895 293.542 486.695 293.725 487.562 293.725C488.695 293.725 489.645 293.45 490.412 292.9C491.195 292.35 491.712 291.608 491.962 290.675H493.812C493.479 292.008 492.762 293.1 491.662 293.95C490.579 294.783 489.212 295.2 487.562 295.2C486.279 295.2 485.129 294.917 484.112 294.35C483.095 293.767 482.295 292.95 481.712 291.9C481.145 290.833 480.862 289.592 480.862 288.175C480.862 286.758 481.145 285.517 481.712 284.45C482.279 283.383 483.07 282.567 484.087 282C485.104 281.433 486.262 281.15 487.562 281.15C488.862 281.15 489.995 281.433 490.962 282C491.945 282.567 492.695 283.333 493.212 284.3C493.745 285.25 494.012 286.308 494.012 287.475ZM492.237 287.425C492.254 286.408 492.045 285.542 491.612 284.825C491.195 284.108 490.62 283.567 489.887 283.2C489.154 282.833 488.354 282.65 487.487 282.65C486.187 282.65 485.079 283.067 484.162 283.9C483.245 284.733 482.737 285.908 482.637 287.425H492.237ZM501.914 295.2C500.347 295.2 499.064 294.842 498.064 294.125C497.081 293.392 496.531 292.4 496.414 291.15H498.214C498.297 291.917 498.656 292.542 499.289 293.025C499.939 293.492 500.806 293.725 501.889 293.725C502.839 293.725 503.581 293.5 504.114 293.05C504.664 292.6 504.939 292.042 504.939 291.375C504.939 290.908 504.789 290.525 504.489 290.225C504.189 289.925 503.806 289.692 503.339 289.525C502.889 289.342 502.272 289.15 501.489 288.95C500.472 288.683 499.647 288.417 499.014 288.15C498.381 287.883 497.839 287.492 497.389 286.975C496.956 286.442 496.739 285.733 496.739 284.85C496.739 284.183 496.939 283.567 497.339 283C497.739 282.433 498.306 281.983 499.039 281.65C499.772 281.317 500.606 281.15 501.539 281.15C503.006 281.15 504.189 281.525 505.089 282.275C505.989 283.008 506.472 284.025 506.539 285.325H504.789C504.739 284.525 504.422 283.883 503.839 283.4C503.272 282.9 502.489 282.65 501.489 282.65C500.606 282.65 499.889 282.858 499.339 283.275C498.789 283.692 498.514 284.208 498.514 284.825C498.514 285.358 498.672 285.8 498.989 286.15C499.322 286.483 499.731 286.75 500.214 286.95C500.697 287.133 501.347 287.342 502.164 287.575C503.147 287.842 503.931 288.1 504.514 288.35C505.097 288.6 505.597 288.967 506.014 289.45C506.431 289.933 506.647 290.575 506.664 291.375C506.664 292.108 506.464 292.767 506.064 293.35C505.664 293.917 505.106 294.367 504.389 294.7C503.672 295.033 502.847 295.2 501.914 295.2ZM522.193 282.825H519.018V295H517.268V282.825H515.368V281.35H517.268V280.4C517.268 278.917 517.643 277.825 518.393 277.125C519.16 276.425 520.393 276.075 522.093 276.075V277.575C520.96 277.575 520.16 277.792 519.693 278.225C519.243 278.658 519.018 279.383 519.018 280.4V281.35H522.193V282.825ZM530.923 295.2C529.64 295.2 528.482 294.917 527.448 294.35C526.432 293.767 525.623 292.95 525.023 291.9C524.44 290.833 524.148 289.592 524.148 288.175C524.148 286.758 524.448 285.525 525.048 284.475C525.648 283.408 526.465 282.592 527.498 282.025C528.532 281.442 529.69 281.15 530.973 281.15C532.257 281.15 533.415 281.442 534.448 282.025C535.498 282.592 536.315 283.408 536.898 284.475C537.498 285.525 537.798 286.758 537.798 288.175C537.798 289.575 537.498 290.808 536.898 291.875C536.298 292.942 535.473 293.767 534.423 294.35C533.373 294.917 532.207 295.2 530.923 295.2ZM530.923 293.675C531.823 293.675 532.657 293.475 533.423 293.075C534.19 292.658 534.807 292.042 535.273 291.225C535.757 290.392 535.998 289.375 535.998 288.175C535.998 286.975 535.765 285.967 535.298 285.15C534.832 284.317 534.215 283.7 533.448 283.3C532.682 282.883 531.848 282.675 530.948 282.675C530.048 282.675 529.215 282.883 528.448 283.3C527.682 283.7 527.065 284.317 526.598 285.15C526.148 285.967 525.923 286.975 525.923 288.175C525.923 289.375 526.148 290.392 526.598 291.225C527.065 292.042 527.673 292.658 528.423 293.075C529.19 293.475 530.023 293.675 530.923 293.675ZM542.738 283.775C543.122 282.925 543.705 282.267 544.488 281.8C545.288 281.333 546.263 281.1 547.413 281.1V282.925H546.938C545.672 282.925 544.655 283.267 543.888 283.95C543.122 284.633 542.738 285.775 542.738 287.375V295H540.988V281.35H542.738V283.775ZM559.181 282.825V291.3C559.181 292.133 559.34 292.708 559.656 293.025C559.973 293.342 560.531 293.5 561.331 293.5H562.931V295H561.056C559.823 295 558.906 294.717 558.306 294.15C557.706 293.567 557.406 292.617 557.406 291.3V282.825H555.506V281.35H557.406V277.925H559.181V281.35H562.931V282.825H559.181ZM572.317 281.1C573.351 281.1 574.276 281.317 575.092 281.75C575.926 282.183 576.576 282.85 577.042 283.75C577.526 284.633 577.767 285.717 577.767 287V295H576.042V287.2C576.042 285.717 575.667 284.583 574.917 283.8C574.184 283.017 573.176 282.625 571.892 282.625C570.576 282.625 569.526 283.042 568.742 283.875C567.959 284.708 567.567 285.933 567.567 287.55V295H565.817V276.5H567.567V283.675C568.001 282.858 568.634 282.225 569.467 281.775C570.317 281.325 571.267 281.1 572.317 281.1ZM593.988 287.475C593.988 288.075 593.971 288.533 593.938 288.85H582.613C582.663 289.883 582.913 290.767 583.363 291.5C583.813 292.233 584.404 292.792 585.138 293.175C585.871 293.542 586.671 293.725 587.538 293.725C588.671 293.725 589.621 293.45 590.388 292.9C591.171 292.35 591.688 291.608 591.938 290.675H593.788C593.454 292.008 592.738 293.1 591.638 293.95C590.554 294.783 589.188 295.2 587.538 295.2C586.254 295.2 585.104 294.917 584.088 294.35C583.071 293.767 582.271 292.95 581.688 291.9C581.121 290.833 580.838 289.592 580.838 288.175C580.838 286.758 581.121 285.517 581.688 284.45C582.254 283.383 583.046 282.567 584.063 282C585.079 281.433 586.238 281.15 587.538 281.15C588.838 281.15 589.971 281.433 590.938 282C591.921 282.567 592.671 283.333 593.188 284.3C593.721 285.25 593.988 286.308 593.988 287.475ZM592.213 287.425C592.229 286.408 592.021 285.542 591.588 284.825C591.171 284.108 590.596 283.567 589.863 283.2C589.129 282.833 588.329 282.65 587.463 282.65C586.163 282.65 585.054 283.067 584.138 283.9C583.221 284.733 582.713 285.908 582.613 287.425H592.213ZM603.25 288.15C603.25 286.75 603.533 285.525 604.1 284.475C604.666 283.408 605.441 282.592 606.425 282.025C607.425 281.442 608.55 281.15 609.8 281.15C611 281.15 612.083 281.442 613.05 282.025C614.016 282.608 614.725 283.367 615.175 284.3V276.5H616.925V295H615.175V291.95C614.758 292.9 614.075 293.683 613.125 294.3C612.175 294.9 611.058 295.2 609.775 295.2C608.525 295.2 607.4 294.908 606.4 294.325C605.416 293.742 604.641 292.917 604.075 291.85C603.525 290.783 603.25 289.55 603.25 288.15ZM615.175 288.175C615.175 287.075 614.95 286.108 614.5 285.275C614.05 284.442 613.433 283.8 612.65 283.35C611.883 282.9 611.033 282.675 610.1 282.675C609.133 282.675 608.266 282.892 607.5 283.325C606.733 283.758 606.125 284.392 605.675 285.225C605.241 286.042 605.025 287.017 605.025 288.15C605.025 289.267 605.241 290.25 605.675 291.1C606.125 291.933 606.733 292.575 607.5 293.025C608.266 293.458 609.133 293.675 610.1 293.675C611.033 293.675 611.883 293.45 612.65 293C613.433 292.55 614.05 291.908 614.5 291.075C614.95 290.242 615.175 289.275 615.175 288.175ZM626.895 295.2C625.612 295.2 624.453 294.917 623.42 294.35C622.403 293.767 621.595 292.95 620.995 291.9C620.412 290.833 620.12 289.592 620.12 288.175C620.12 286.758 620.42 285.525 621.02 284.475C621.62 283.408 622.437 282.592 623.47 282.025C624.503 281.442 625.662 281.15 626.945 281.15C628.228 281.15 629.387 281.442 630.42 282.025C631.47 282.592 632.287 283.408 632.87 284.475C633.47 285.525 633.77 286.758 633.77 288.175C633.77 289.575 633.47 290.808 632.87 291.875C632.27 292.942 631.445 293.767 630.395 294.35C629.345 294.917 628.178 295.2 626.895 295.2ZM626.895 293.675C627.795 293.675 628.628 293.475 629.395 293.075C630.162 292.658 630.778 292.042 631.245 291.225C631.728 290.392 631.97 289.375 631.97 288.175C631.97 286.975 631.737 285.967 631.27 285.15C630.803 284.317 630.187 283.7 629.42 283.3C628.653 282.883 627.82 282.675 626.92 282.675C626.02 282.675 625.187 282.883 624.42 283.3C623.653 283.7 623.037 284.317 622.57 285.15C622.12 285.967 621.895 286.975 621.895 288.175C621.895 289.375 622.12 290.392 622.57 291.225C623.037 292.042 623.645 292.658 624.395 293.075C625.162 293.475 625.995 293.675 626.895 293.675ZM638.71 276.5V295H636.96V276.5H638.71ZM644.423 276.5V295H642.673V276.5H644.423ZM647.586 288.15C647.586 286.75 647.861 285.525 648.411 284.475C648.977 283.408 649.752 282.592 650.736 282.025C651.736 281.442 652.861 281.15 654.111 281.15C655.411 281.15 656.527 281.45 657.461 282.05C658.411 282.65 659.094 283.417 659.511 284.35V281.35H661.261V295H659.511V291.975C659.077 292.908 658.386 293.683 657.436 294.3C656.502 294.9 655.386 295.2 654.086 295.2C652.852 295.2 651.736 294.908 650.736 294.325C649.752 293.742 648.977 292.917 648.411 291.85C647.861 290.783 647.586 289.55 647.586 288.15ZM659.511 288.175C659.511 287.075 659.286 286.108 658.836 285.275C658.386 284.442 657.769 283.8 656.986 283.35C656.219 282.9 655.369 282.675 654.436 282.675C653.469 282.675 652.602 282.892 651.836 283.325C651.069 283.758 650.461 284.392 650.011 285.225C649.577 286.042 649.361 287.017 649.361 288.15C649.361 289.267 649.577 290.25 650.011 291.1C650.461 291.933 651.069 292.575 651.836 293.025C652.602 293.458 653.469 293.675 654.436 293.675C655.369 293.675 656.219 293.45 656.986 293C657.769 292.55 658.386 291.908 658.836 291.075C659.286 290.242 659.511 289.275 659.511 288.175ZM667.006 283.775C667.389 282.925 667.973 282.267 668.756 281.8C669.556 281.333 670.531 281.1 671.681 281.1V282.925H671.206C669.939 282.925 668.923 283.267 668.156 283.95C667.389 284.633 667.006 285.775 667.006 287.375V295H665.256V281.35H667.006V283.775ZM680.374 288.15C680.374 286.75 680.649 285.525 681.199 284.475C681.765 283.408 682.54 282.592 683.524 282.025C684.524 281.442 685.649 281.15 686.899 281.15C688.199 281.15 689.315 281.45 690.249 282.05C691.199 282.65 691.882 283.417 692.299 284.35V281.35H694.049V295H692.299V291.975C691.865 292.908 691.174 293.683 690.224 294.3C689.29 294.9 688.174 295.2 686.874 295.2C685.64 295.2 684.524 294.908 683.524 294.325C682.54 293.742 681.765 292.917 681.199 291.85C680.649 290.783 680.374 289.55 680.374 288.15ZM692.299 288.175C692.299 287.075 692.074 286.108 691.624 285.275C691.174 284.442 690.557 283.8 689.774 283.35C689.007 282.9 688.157 282.675 687.224 282.675C686.257 282.675 685.39 282.892 684.624 283.325C683.857 283.758 683.249 284.392 682.799 285.225C682.365 286.042 682.149 287.017 682.149 288.15C682.149 289.267 682.365 290.25 682.799 291.1C683.249 291.933 683.857 292.575 684.624 293.025C685.39 293.458 686.257 293.675 687.224 293.675C688.157 293.675 689.007 293.45 689.774 293C690.557 292.55 691.174 291.908 691.624 291.075C692.074 290.242 692.299 289.275 692.299 288.175ZM704.444 281.1C706.077 281.1 707.411 281.608 708.444 282.625C709.477 283.625 709.994 285.083 709.994 287V295H708.269V287.2C708.269 285.717 707.894 284.583 707.144 283.8C706.411 283.017 705.402 282.625 704.119 282.625C702.802 282.625 701.752 283.042 700.969 283.875C700.186 284.708 699.794 285.933 699.794 287.55V295H698.044V281.35H699.794V283.675C700.227 282.842 700.852 282.208 701.669 281.775C702.486 281.325 703.411 281.1 704.444 281.1ZM713.064 288.15C713.064 286.75 713.348 285.525 713.914 284.475C714.481 283.408 715.256 282.592 716.239 282.025C717.239 281.442 718.364 281.15 719.614 281.15C720.814 281.15 721.898 281.442 722.864 282.025C723.831 282.608 724.539 283.367 724.989 284.3V276.5H726.739V295H724.989V291.95C724.573 292.9 723.889 293.683 722.939 294.3C721.989 294.9 720.873 295.2 719.589 295.2C718.339 295.2 717.214 294.908 716.214 294.325C715.231 293.742 714.456 292.917 713.889 291.85C713.339 290.783 713.064 289.55 713.064 288.15ZM724.989 288.175C724.989 287.075 724.764 286.108 724.314 285.275C723.864 284.442 723.248 283.8 722.464 283.35C721.698 282.9 720.848 282.675 719.914 282.675C718.948 282.675 718.081 282.892 717.314 283.325C716.548 283.758 715.939 284.392 715.489 285.225C715.056 286.042 714.839 287.017 714.839 288.15C714.839 289.267 715.056 290.25 715.489 291.1C715.939 291.933 716.548 292.575 717.314 293.025C718.081 293.458 718.948 293.675 719.914 293.675C720.848 293.675 721.698 293.45 722.464 293C723.248 292.55 723.864 291.908 724.314 291.075C724.764 290.242 724.989 289.275 724.989 288.175ZM743.57 295.2C742.286 295.2 741.128 294.917 740.095 294.35C739.078 293.767 738.27 292.95 737.67 291.9C737.086 290.833 736.795 289.592 736.795 288.175C736.795 286.758 737.095 285.525 737.695 284.475C738.295 283.408 739.111 282.592 740.145 282.025C741.178 281.442 742.336 281.15 743.62 281.15C744.903 281.15 746.061 281.442 747.095 282.025C748.145 282.592 748.961 283.408 749.545 284.475C750.145 285.525 750.445 286.758 750.445 288.175C750.445 289.575 750.145 290.808 749.545 291.875C748.945 292.942 748.12 293.767 747.07 294.35C746.02 294.917 744.853 295.2 743.57 295.2ZM743.57 293.675C744.47 293.675 745.303 293.475 746.07 293.075C746.836 292.658 747.453 292.042 747.92 291.225C748.403 290.392 748.645 289.375 748.645 288.175C748.645 286.975 748.411 285.967 747.945 285.15C747.478 284.317 746.861 283.7 746.095 283.3C745.328 282.883 744.495 282.675 743.595 282.675C742.695 282.675 741.861 282.883 741.095 283.3C740.328 283.7 739.711 284.317 739.245 285.15C738.795 285.967 738.57 286.975 738.57 288.175C738.57 289.375 738.795 290.392 739.245 291.225C739.711 292.042 740.32 292.658 741.07 293.075C741.836 293.475 742.67 293.675 743.57 293.675ZM755.91 282.825V291.3C755.91 292.133 756.068 292.708 756.385 293.025C756.701 293.342 757.26 293.5 758.06 293.5H759.66V295H757.785C756.551 295 755.635 294.717 755.035 294.15C754.435 293.567 754.135 292.617 754.135 291.3V282.825H752.235V281.35H754.135V277.925H755.91V281.35H759.66V282.825H755.91ZM769.046 281.1C770.079 281.1 771.004 281.317 771.821 281.75C772.654 282.183 773.304 282.85 773.771 283.75C774.254 284.633 774.496 285.717 774.496 287V295H772.771V287.2C772.771 285.717 772.396 284.583 771.646 283.8C770.913 283.017 769.904 282.625 768.621 282.625C767.304 282.625 766.254 283.042 765.471 283.875C764.688 284.708 764.296 285.933 764.296 287.55V295H762.546V276.5H764.296V283.675C764.729 282.858 765.363 282.225 766.196 281.775C767.046 281.325 767.996 281.1 769.046 281.1ZM790.716 287.475C790.716 288.075 790.7 288.533 790.666 288.85H779.341C779.391 289.883 779.641 290.767 780.091 291.5C780.541 292.233 781.133 292.792 781.866 293.175C782.6 293.542 783.4 293.725 784.266 293.725C785.4 293.725 786.35 293.45 787.116 292.9C787.9 292.35 788.416 291.608 788.666 290.675H790.516C790.183 292.008 789.466 293.1 788.366 293.95C787.283 294.783 785.916 295.2 784.266 295.2C782.983 295.2 781.833 294.917 780.816 294.35C779.8 293.767 779 292.95 778.416 291.9C777.85 290.833 777.566 289.592 777.566 288.175C777.566 286.758 777.85 285.517 778.416 284.45C778.983 283.383 779.775 282.567 780.791 282C781.808 281.433 782.966 281.15 784.266 281.15C785.566 281.15 786.7 281.433 787.666 282C788.65 282.567 789.4 283.333 789.916 284.3C790.45 285.25 790.716 286.308 790.716 287.475ZM788.941 287.425C788.958 286.408 788.75 285.542 788.316 284.825C787.9 284.108 787.325 283.567 786.591 283.2C785.858 282.833 785.058 282.65 784.191 282.65C782.891 282.65 781.783 283.067 780.866 283.9C779.95 284.733 779.441 285.908 779.341 287.425H788.941ZM795.668 283.775C796.051 282.925 796.635 282.267 797.418 281.8C798.218 281.333 799.193 281.1 800.343 281.1V282.925H799.868C798.601 282.925 797.585 283.267 796.818 283.95C796.051 284.633 795.668 285.775 795.668 287.375V295H793.918V281.35H795.668V283.775ZM467.278 325.775C466.928 325.775 466.628 325.65 466.378 325.4C466.128 325.15 466.003 324.842 466.003 324.475C466.003 324.108 466.128 323.808 466.378 323.575C466.628 323.325 466.928 323.2 467.278 323.2C467.628 323.2 467.928 323.325 468.178 323.575C468.428 323.808 468.553 324.108 468.553 324.475C468.553 324.842 468.428 325.15 468.178 325.4C467.928 325.65 467.628 325.775 467.278 325.775ZM468.153 328.35V342H466.403V328.35H468.153ZM478.516 328.1C480.15 328.1 481.483 328.608 482.516 329.625C483.55 330.625 484.066 332.083 484.066 334V342H482.341V334.2C482.341 332.717 481.966 331.583 481.216 330.8C480.483 330.017 479.475 329.625 478.191 329.625C476.875 329.625 475.825 330.042 475.041 330.875C474.258 331.708 473.866 332.933 473.866 334.55V342H472.116V328.35H473.866V330.675C474.3 329.842 474.925 329.208 475.741 328.775C476.558 328.325 477.483 328.1 478.516 328.1ZM490.212 329.825V338.3C490.212 339.133 490.37 339.708 490.687 340.025C491.003 340.342 491.562 340.5 492.362 340.5H493.962V342H492.087C490.853 342 489.937 341.717 489.337 341.15C488.737 340.567 488.437 339.617 488.437 338.3V329.825H486.537V328.35H488.437V324.925H490.212V328.35H493.962V329.825H490.212ZM509.198 334.475C509.198 335.075 509.181 335.533 509.148 335.85H497.823C497.873 336.883 498.123 337.767 498.573 338.5C499.023 339.233 499.614 339.792 500.348 340.175C501.081 340.542 501.881 340.725 502.748 340.725C503.881 340.725 504.831 340.45 505.598 339.9C506.381 339.35 506.898 338.608 507.148 337.675H508.998C508.664 339.008 507.948 340.1 506.848 340.95C505.764 341.783 504.398 342.2 502.748 342.2C501.464 342.2 500.314 341.917 499.298 341.35C498.281 340.767 497.481 339.95 496.898 338.9C496.331 337.833 496.048 336.592 496.048 335.175C496.048 333.758 496.331 332.517 496.898 331.45C497.464 330.383 498.256 329.567 499.273 329C500.289 328.433 501.448 328.15 502.748 328.15C504.048 328.15 505.181 328.433 506.148 329C507.131 329.567 507.881 330.333 508.398 331.3C508.931 332.25 509.198 333.308 509.198 334.475ZM507.423 334.425C507.439 333.408 507.231 332.542 506.798 331.825C506.381 331.108 505.806 330.567 505.073 330.2C504.339 329.833 503.539 329.65 502.673 329.65C501.373 329.65 500.264 330.067 499.348 330.9C498.431 331.733 497.923 332.908 497.823 334.425H507.423ZM514.149 330.775C514.533 329.925 515.116 329.267 515.899 328.8C516.699 328.333 517.674 328.1 518.824 328.1V329.925H518.349C517.083 329.925 516.066 330.267 515.299 330.95C514.533 331.633 514.149 332.775 514.149 334.375V342H512.399V328.35H514.149V330.775ZM527.857 328.1C529.49 328.1 530.824 328.608 531.857 329.625C532.89 330.625 533.407 332.083 533.407 334V342H531.682V334.2C531.682 332.717 531.307 331.583 530.557 330.8C529.824 330.017 528.815 329.625 527.532 329.625C526.215 329.625 525.165 330.042 524.382 330.875C523.599 331.708 523.207 332.933 523.207 334.55V342H521.457V328.35H523.207V330.675C523.64 329.842 524.265 329.208 525.082 328.775C525.899 328.325 526.824 328.1 527.857 328.1ZM536.477 335.15C536.477 333.75 536.752 332.525 537.302 331.475C537.869 330.408 538.644 329.592 539.627 329.025C540.627 328.442 541.752 328.15 543.002 328.15C544.302 328.15 545.419 328.45 546.352 329.05C547.302 329.65 547.986 330.417 548.402 331.35V328.35H550.152V342H548.402V338.975C547.969 339.908 547.277 340.683 546.327 341.3C545.394 341.9 544.277 342.2 542.977 342.2C541.744 342.2 540.627 341.908 539.627 341.325C538.644 340.742 537.869 339.917 537.302 338.85C536.752 337.783 536.477 336.55 536.477 335.15ZM548.402 335.175C548.402 334.075 548.177 333.108 547.727 332.275C547.277 331.442 546.661 330.8 545.877 330.35C545.111 329.9 544.261 329.675 543.327 329.675C542.361 329.675 541.494 329.892 540.727 330.325C539.961 330.758 539.352 331.392 538.902 332.225C538.469 333.042 538.252 334.017 538.252 335.15C538.252 336.267 538.469 337.25 538.902 338.1C539.352 338.933 539.961 339.575 540.727 340.025C541.494 340.458 542.361 340.675 543.327 340.675C544.261 340.675 545.111 340.45 545.877 340C546.661 339.55 547.277 338.908 547.727 338.075C548.177 337.242 548.402 336.275 548.402 335.175ZM556.422 329.825V338.3C556.422 339.133 556.581 339.708 556.897 340.025C557.214 340.342 557.772 340.5 558.572 340.5H560.172V342H558.297C557.064 342 556.147 341.717 555.547 341.15C554.947 340.567 554.647 339.617 554.647 338.3V329.825H552.747V328.35H554.647V324.925H556.422V328.35H560.172V329.825H556.422ZM563.934 325.775C563.584 325.775 563.284 325.65 563.034 325.4C562.784 325.15 562.659 324.842 562.659 324.475C562.659 324.108 562.784 323.808 563.034 323.575C563.284 323.325 563.584 323.2 563.934 323.2C564.284 323.2 564.584 323.325 564.834 323.575C565.084 323.808 565.209 324.108 565.209 324.475C565.209 324.842 565.084 325.15 564.834 325.4C564.584 325.65 564.284 325.775 563.934 325.775ZM564.809 328.35V342H563.059V328.35H564.809ZM574.746 342.2C573.463 342.2 572.305 341.917 571.271 341.35C570.255 340.767 569.446 339.95 568.846 338.9C568.263 337.833 567.971 336.592 567.971 335.175C567.971 333.758 568.271 332.525 568.871 331.475C569.471 330.408 570.288 329.592 571.321 329.025C572.355 328.442 573.513 328.15 574.796 328.15C576.08 328.15 577.238 328.442 578.271 329.025C579.321 329.592 580.138 330.408 580.721 331.475C581.321 332.525 581.621 333.758 581.621 335.175C581.621 336.575 581.321 337.808 580.721 338.875C580.121 339.942 579.296 340.767 578.246 341.35C577.196 341.917 576.03 342.2 574.746 342.2ZM574.746 340.675C575.646 340.675 576.48 340.475 577.246 340.075C578.013 339.658 578.63 339.042 579.096 338.225C579.58 337.392 579.821 336.375 579.821 335.175C579.821 333.975 579.588 332.967 579.121 332.15C578.655 331.317 578.038 330.7 577.271 330.3C576.505 329.883 575.671 329.675 574.771 329.675C573.871 329.675 573.038 329.883 572.271 330.3C571.505 330.7 570.888 331.317 570.421 332.15C569.971 332.967 569.746 333.975 569.746 335.175C569.746 336.375 569.971 337.392 570.421 338.225C570.888 339.042 571.496 339.658 572.246 340.075C573.013 340.475 573.846 340.675 574.746 340.675ZM591.212 328.1C592.845 328.1 594.178 328.608 595.212 329.625C596.245 330.625 596.762 332.083 596.762 334V342H595.037V334.2C595.037 332.717 594.662 331.583 593.912 330.8C593.178 330.017 592.17 329.625 590.887 329.625C589.57 329.625 588.52 330.042 587.737 330.875C586.953 331.708 586.562 332.933 586.562 334.55V342H584.812V328.35H586.562V330.675C586.995 329.842 587.62 329.208 588.437 328.775C589.253 328.325 590.178 328.1 591.212 328.1ZM599.832 335.15C599.832 333.75 600.107 332.525 600.657 331.475C601.224 330.408 601.999 329.592 602.982 329.025C603.982 328.442 605.107 328.15 606.357 328.15C607.657 328.15 608.774 328.45 609.707 329.05C610.657 329.65 611.34 330.417 611.757 331.35V328.35H613.507V342H611.757V338.975C611.324 339.908 610.632 340.683 609.682 341.3C608.749 341.9 607.632 342.2 606.332 342.2C605.099 342.2 603.982 341.908 602.982 341.325C601.999 340.742 601.224 339.917 600.657 338.85C600.107 337.783 599.832 336.55 599.832 335.15ZM611.757 335.175C611.757 334.075 611.532 333.108 611.082 332.275C610.632 331.442 610.015 330.8 609.232 330.35C608.465 329.9 607.615 329.675 606.682 329.675C605.715 329.675 604.849 329.892 604.082 330.325C603.315 330.758 602.707 331.392 602.257 332.225C601.824 333.042 601.607 334.017 601.607 335.15C601.607 336.267 601.824 337.25 602.257 338.1C602.707 338.933 603.315 339.575 604.082 340.025C604.849 340.458 605.715 340.675 606.682 340.675C607.615 340.675 608.465 340.45 609.232 340C610.015 339.55 610.632 338.908 611.082 338.075C611.532 337.242 611.757 336.275 611.757 335.175ZM619.252 323.5V342H617.502V323.5H619.252ZM629.275 335.175C629.275 333.758 629.559 332.525 630.125 331.475C630.692 330.408 631.475 329.592 632.475 329.025C633.475 328.442 634.617 328.15 635.9 328.15C637.584 328.15 638.967 328.567 640.05 329.4C641.15 330.233 641.859 331.367 642.175 332.8H640.3C640.067 331.817 639.559 331.05 638.775 330.5C638.009 329.933 637.05 329.65 635.9 329.65C634.984 329.65 634.159 329.858 633.425 330.275C632.692 330.692 632.109 331.317 631.675 332.15C631.259 332.967 631.05 333.975 631.05 335.175C631.05 336.375 631.259 337.392 631.675 338.225C632.109 339.058 632.692 339.683 633.425 340.1C634.159 340.517 634.984 340.725 635.9 340.725C637.05 340.725 638.009 340.45 638.775 339.9C639.559 339.333 640.067 338.55 640.3 337.55H642.175C641.859 338.95 641.15 340.075 640.05 340.925C638.95 341.775 637.567 342.2 635.9 342.2C634.617 342.2 633.475 341.917 632.475 341.35C631.475 340.767 630.692 339.95 630.125 338.9C629.559 337.833 629.275 336.592 629.275 335.175ZM657.232 328.35V342H655.482V339.6C655.082 340.45 654.466 341.1 653.632 341.55C652.799 342 651.866 342.225 650.832 342.225C649.199 342.225 647.866 341.725 646.832 340.725C645.799 339.708 645.282 338.242 645.282 336.325V328.35H647.007V336.125C647.007 337.608 647.374 338.742 648.107 339.525C648.857 340.308 649.874 340.7 651.157 340.7C652.474 340.7 653.524 340.283 654.307 339.45C655.091 338.617 655.482 337.392 655.482 335.775V328.35H657.232ZM662.978 330.775C663.361 329.925 663.944 329.267 664.728 328.8C665.528 328.333 666.503 328.1 667.653 328.1V329.925H667.178C665.911 329.925 664.894 330.267 664.128 330.95C663.361 331.633 662.978 332.775 662.978 334.375V342H661.228V328.35H662.978V330.775ZM672.035 330.775C672.418 329.925 673.002 329.267 673.785 328.8C674.585 328.333 675.56 328.1 676.71 328.1V329.925H676.235C674.968 329.925 673.952 330.267 673.185 330.95C672.418 331.633 672.035 332.775 672.035 334.375V342H670.285V328.35H672.035V330.775ZM691.693 334.475C691.693 335.075 691.676 335.533 691.643 335.85H680.318C680.368 336.883 680.618 337.767 681.068 338.5C681.518 339.233 682.109 339.792 682.843 340.175C683.576 340.542 684.376 340.725 685.243 340.725C686.376 340.725 687.326 340.45 688.093 339.9C688.876 339.35 689.393 338.608 689.643 337.675H691.493C691.159 339.008 690.443 340.1 689.343 340.95C688.259 341.783 686.893 342.2 685.243 342.2C683.959 342.2 682.809 341.917 681.793 341.35C680.776 340.767 679.976 339.95 679.393 338.9C678.826 337.833 678.543 336.592 678.543 335.175C678.543 333.758 678.826 332.517 679.393 331.45C679.959 330.383 680.751 329.567 681.768 329C682.784 328.433 683.943 328.15 685.243 328.15C686.543 328.15 687.676 328.433 688.643 329C689.626 329.567 690.376 330.333 690.893 331.3C691.426 332.25 691.693 333.308 691.693 334.475ZM689.918 334.425C689.934 333.408 689.726 332.542 689.293 331.825C688.876 331.108 688.301 330.567 687.568 330.2C686.834 329.833 686.034 329.65 685.168 329.65C683.868 329.65 682.759 330.067 681.843 330.9C680.926 331.733 680.418 332.908 680.318 334.425H689.918ZM701.295 328.1C702.928 328.1 704.261 328.608 705.295 329.625C706.328 330.625 706.845 332.083 706.845 334V342H705.12V334.2C705.12 332.717 704.745 331.583 703.995 330.8C703.261 330.017 702.253 329.625 700.97 329.625C699.653 329.625 698.603 330.042 697.82 330.875C697.036 331.708 696.645 332.933 696.645 334.55V342H694.895V328.35H696.645V330.675C697.078 329.842 697.703 329.208 698.52 328.775C699.336 328.325 700.261 328.1 701.295 328.1ZM709.915 335.175C709.915 333.758 710.198 332.525 710.765 331.475C711.332 330.408 712.115 329.592 713.115 329.025C714.115 328.442 715.257 328.15 716.54 328.15C718.223 328.15 719.607 328.567 720.69 329.4C721.79 330.233 722.498 331.367 722.815 332.8H720.94C720.707 331.817 720.198 331.05 719.415 330.5C718.648 329.933 717.69 329.65 716.54 329.65C715.623 329.65 714.798 329.858 714.065 330.275C713.332 330.692 712.748 331.317 712.315 332.15C711.898 332.967 711.69 333.975 711.69 335.175C711.69 336.375 711.898 337.392 712.315 338.225C712.748 339.058 713.332 339.683 714.065 340.1C714.798 340.517 715.623 340.725 716.54 340.725C717.69 340.725 718.648 340.45 719.415 339.9C720.198 339.333 720.707 338.55 720.94 337.55H722.815C722.498 338.95 721.79 340.075 720.69 340.925C719.59 341.775 718.207 342.2 716.54 342.2C715.257 342.2 714.115 341.917 713.115 341.35C712.115 340.767 711.332 339.95 710.765 338.9C710.198 337.833 709.915 336.592 709.915 335.175ZM726.922 325.775C726.572 325.775 726.272 325.65 726.022 325.4C725.772 325.15 725.647 324.842 725.647 324.475C725.647 324.108 725.772 323.808 726.022 323.575C726.272 323.325 726.572 323.2 726.922 323.2C727.272 323.2 727.572 323.325 727.822 323.575C728.072 323.808 728.197 324.108 728.197 324.475C728.197 324.842 728.072 325.15 727.822 325.4C727.572 325.65 727.272 325.775 726.922 325.775ZM727.797 328.35V342H726.047V328.35H727.797ZM744.11 334.475C744.11 335.075 744.093 335.533 744.06 335.85H732.735C732.785 336.883 733.035 337.767 733.485 338.5C733.935 339.233 734.526 339.792 735.26 340.175C735.993 340.542 736.793 340.725 737.66 340.725C738.793 340.725 739.743 340.45 740.51 339.9C741.293 339.35 741.81 338.608 742.06 337.675H743.91C743.576 339.008 742.86 340.1 741.76 340.95C740.676 341.783 739.31 342.2 737.66 342.2C736.376 342.2 735.226 341.917 734.21 341.35C733.193 340.767 732.393 339.95 731.81 338.9C731.243 337.833 730.96 336.592 730.96 335.175C730.96 333.758 731.243 332.517 731.81 331.45C732.376 330.383 733.168 329.567 734.185 329C735.201 328.433 736.36 328.15 737.66 328.15C738.96 328.15 740.093 328.433 741.06 329C742.043 329.567 742.793 330.333 743.31 331.3C743.843 332.25 744.11 333.308 744.11 334.475ZM742.335 334.425C742.351 333.408 742.143 332.542 741.71 331.825C741.293 331.108 740.718 330.567 739.985 330.2C739.251 329.833 738.451 329.65 737.585 329.65C736.285 329.65 735.176 330.067 734.26 330.9C733.343 331.733 732.835 332.908 732.735 334.425H742.335ZM752.012 342.2C750.445 342.2 749.162 341.842 748.162 341.125C747.178 340.392 746.628 339.4 746.512 338.15H748.312C748.395 338.917 748.753 339.542 749.387 340.025C750.037 340.492 750.903 340.725 751.987 340.725C752.937 340.725 753.678 340.5 754.212 340.05C754.762 339.6 755.037 339.042 755.037 338.375C755.037 337.908 754.887 337.525 754.587 337.225C754.287 336.925 753.903 336.692 753.437 336.525C752.987 336.342 752.37 336.15 751.587 335.95C750.57 335.683 749.745 335.417 749.112 335.15C748.478 334.883 747.937 334.492 747.487 333.975C747.053 333.442 746.837 332.733 746.837 331.85C746.837 331.183 747.037 330.567 747.437 330C747.837 329.433 748.403 328.983 749.137 328.65C749.87 328.317 750.703 328.15 751.637 328.15C753.103 328.15 754.287 328.525 755.187 329.275C756.087 330.008 756.57 331.025 756.637 332.325H754.887C754.837 331.525 754.52 330.883 753.937 330.4C753.37 329.9 752.587 329.65 751.587 329.65C750.703 329.65 749.987 329.858 749.437 330.275C748.887 330.692 748.612 331.208 748.612 331.825C748.612 332.358 748.77 332.8 749.087 333.15C749.42 333.483 749.828 333.75 750.312 333.95C750.795 334.133 751.445 334.342 752.262 334.575C753.245 334.842 754.028 335.1 754.612 335.35C755.195 335.6 755.695 335.967 756.112 336.45C756.528 336.933 756.745 337.575 756.762 338.375C756.762 339.108 756.562 339.767 756.162 340.35C755.762 340.917 755.203 341.367 754.487 341.7C753.77 342.033 752.945 342.2 752.012 342.2ZM760.356 342.125C759.989 342.125 759.681 342 759.431 341.75C759.197 341.5 759.081 341.192 759.081 340.825C759.081 340.458 759.197 340.158 759.431 339.925C759.681 339.675 759.989 339.55 760.356 339.55C760.706 339.55 760.997 339.675 761.231 339.925C761.481 340.158 761.606 340.458 761.606 340.825C761.606 341.192 761.481 341.5 761.231 341.75C760.997 342 760.706 342.125 760.356 342.125Z" fill="#D9D9D9"/>
<path d="M116.381 64.8802V117.928H105.741V83.4242L91.5295 117.928H83.4735L69.1855 83.4242V117.928H58.5455V64.8802H70.6295L87.5015 104.324L104.373 64.8802H116.381ZM145.597 118.612C141.544 118.612 137.896 117.726 134.653 115.952C131.41 114.128 128.852 111.57 126.977 108.276C125.153 104.983 124.241 101.183 124.241 96.8762C124.241 92.5696 125.178 88.7696 127.053 85.4762C128.978 82.1829 131.588 79.6496 134.881 77.8762C138.174 76.0522 141.848 75.1402 145.901 75.1402C149.954 75.1402 153.628 76.0522 156.921 77.8762C160.214 79.6496 162.798 82.1829 164.673 85.4762C166.598 88.7696 167.561 92.5696 167.561 96.8762C167.561 101.183 166.573 104.983 164.597 108.276C162.672 111.57 160.037 114.128 156.693 115.952C153.4 117.726 149.701 118.612 145.597 118.612ZM145.597 109.34C147.522 109.34 149.321 108.884 150.993 107.972C152.716 107.01 154.084 105.591 155.097 103.716C156.11 101.842 156.617 99.5616 156.617 96.8762C156.617 92.8736 155.553 89.8082 153.425 87.6802C151.348 85.5016 148.789 84.4122 145.749 84.4122C142.709 84.4122 140.15 85.5016 138.073 87.6802C136.046 89.8082 135.033 92.8736 135.033 96.8762C135.033 100.879 136.021 103.97 137.997 106.148C140.024 108.276 142.557 109.34 145.597 109.34ZM172.63 96.7242C172.63 92.4682 173.466 88.6936 175.138 85.4002C176.86 82.1069 179.191 79.5736 182.13 77.8002C185.068 76.0269 188.336 75.1402 191.934 75.1402C194.67 75.1402 197.279 75.7482 199.762 76.9642C202.244 78.1296 204.22 79.7002 205.69 81.6762V61.6882H216.482V117.928H205.69V111.696C204.372 113.774 202.523 115.446 200.142 116.712C197.76 117.979 194.999 118.612 191.858 118.612C188.311 118.612 185.068 117.7 182.13 115.876C179.191 114.052 176.86 111.494 175.138 108.2C173.466 104.856 172.63 101.031 172.63 96.7242ZM205.766 96.8762C205.766 94.2922 205.259 92.0882 204.246 90.2642C203.232 88.3896 201.864 86.9709 200.142 86.0082C198.419 84.9949 196.57 84.4882 194.594 84.4882C192.618 84.4882 190.794 84.9696 189.122 85.9322C187.45 86.8949 186.082 88.3136 185.018 90.1882C184.004 92.0122 183.498 94.1909 183.498 96.7242C183.498 99.2576 184.004 101.487 185.018 103.412C186.082 105.287 187.45 106.731 189.122 107.744C190.844 108.758 192.668 109.264 194.594 109.264C196.57 109.264 198.419 108.783 200.142 107.82C201.864 106.807 203.232 105.388 204.246 103.564C205.259 101.69 205.766 99.4602 205.766 96.8762ZM242.986 118.612C239.54 118.612 236.45 118.004 233.714 116.788C230.978 115.522 228.799 113.824 227.178 111.696C225.607 109.568 224.746 107.212 224.594 104.628H235.31C235.512 106.25 236.298 107.592 237.666 108.656C239.084 109.72 240.832 110.252 242.91 110.252C244.936 110.252 246.507 109.847 247.622 109.036C248.787 108.226 249.37 107.187 249.37 105.92C249.37 104.552 248.66 103.539 247.242 102.88C245.874 102.171 243.67 101.411 240.63 100.6C237.488 99.8402 234.904 99.0549 232.878 98.2442C230.902 97.4336 229.179 96.1922 227.71 94.5202C226.291 92.8482 225.582 90.5936 225.582 87.7562C225.582 85.4256 226.24 83.2976 227.558 81.3722C228.926 79.4469 230.851 77.9269 233.334 76.8122C235.867 75.6976 238.831 75.1402 242.226 75.1402C247.242 75.1402 251.244 76.4069 254.234 78.9402C257.223 81.4229 258.87 84.7922 259.174 89.0482H248.99C248.838 87.3762 248.128 86.0589 246.862 85.0962C245.646 84.0829 243.999 83.5762 241.922 83.5762C239.996 83.5762 238.502 83.9309 237.438 84.6402C236.424 85.3496 235.918 86.3376 235.918 87.6042C235.918 89.0229 236.627 90.1122 238.046 90.8722C239.464 91.5816 241.668 92.3162 244.658 93.0762C247.698 93.8362 250.206 94.6216 252.182 95.4322C254.158 96.2429 255.855 97.5096 257.274 99.2322C258.743 100.904 259.503 103.134 259.554 105.92C259.554 108.352 258.87 110.531 257.502 112.456C256.184 114.382 254.259 115.902 251.726 117.016C249.243 118.08 246.33 118.612 242.986 118.612ZM307.428 95.9642C307.428 97.4842 307.326 98.8522 307.124 100.068H276.344C276.597 103.108 277.661 105.49 279.536 107.212C281.41 108.935 283.716 109.796 286.452 109.796C290.404 109.796 293.216 108.099 294.888 104.704H306.364C305.148 108.758 302.817 112.102 299.372 114.736C295.926 117.32 291.696 118.612 286.68 118.612C282.626 118.612 278.978 117.726 275.736 115.952C272.544 114.128 270.036 111.57 268.212 108.276C266.438 104.983 265.552 101.183 265.552 96.8762C265.552 92.5189 266.438 88.6936 268.212 85.4002C269.985 82.1069 272.468 79.5736 275.66 77.8002C278.852 76.0269 282.525 75.1402 286.68 75.1402C290.682 75.1402 294.254 76.0016 297.396 77.7242C300.588 79.4469 303.045 81.9042 304.768 85.0962C306.541 88.2376 307.428 91.8602 307.428 95.9642ZM296.408 92.9242C296.357 90.1882 295.369 88.0096 293.444 86.3882C291.518 84.7162 289.162 83.8802 286.376 83.8802C283.741 83.8802 281.512 84.6909 279.688 86.3122C277.914 87.8829 276.825 90.0869 276.42 92.9242H296.408ZM338.526 75.2162C343.542 75.2162 347.595 76.8122 350.686 80.0042C353.777 83.1456 355.322 87.5536 355.322 93.2282V117.928H344.682V94.6722C344.682 91.3282 343.846 88.7696 342.174 86.9962C340.502 85.1722 338.222 84.2602 335.334 84.2602C332.395 84.2602 330.065 85.1722 328.342 86.9962C326.67 88.7696 325.834 91.3282 325.834 94.6722V117.928H315.194V75.8242H325.834V81.0682C327.253 79.2442 329.051 77.8256 331.23 76.8122C333.459 75.7482 335.891 75.2162 338.526 75.2162ZM380.965 91.3282C380.965 86.1096 382.131 81.4482 384.461 77.3442C386.843 73.1896 390.06 69.9722 394.113 67.6922C398.217 65.3616 402.803 64.1962 407.869 64.1962C413.797 64.1962 418.991 65.7162 423.449 68.7562C427.908 71.7962 431.024 76.0016 432.797 81.3722H420.561C419.345 78.8389 417.623 76.9389 415.393 75.6722C413.215 74.4056 410.681 73.7722 407.793 73.7722C404.703 73.7722 401.941 74.5069 399.509 75.9762C397.128 77.3949 395.253 79.4216 393.885 82.0562C392.568 84.6909 391.909 87.7816 391.909 91.3282C391.909 94.8242 392.568 97.9149 393.885 100.6C395.253 103.235 397.128 105.287 399.509 106.756C401.941 108.175 404.703 108.884 407.793 108.884C410.681 108.884 413.215 108.251 415.393 106.984C417.623 105.667 419.345 103.742 420.561 101.208H432.797C431.024 106.63 427.908 110.86 423.449 113.9C419.041 116.89 413.848 118.384 407.869 118.384C402.803 118.384 398.217 117.244 394.113 114.964C390.06 112.634 386.843 109.416 384.461 105.312C382.131 101.208 380.965 96.5469 380.965 91.3282ZM481.633 75.8242V117.928H470.917V112.608C469.549 114.432 467.751 115.876 465.521 116.94C463.343 117.954 460.961 118.46 458.377 118.46C455.084 118.46 452.171 117.776 449.637 116.408C447.104 114.99 445.103 112.938 443.633 110.252C442.215 107.516 441.505 104.274 441.505 100.524V75.8242H452.145V99.0042C452.145 102.348 452.981 104.932 454.653 106.756C456.325 108.53 458.605 109.416 461.493 109.416C464.432 109.416 466.737 108.53 468.409 106.756C470.081 104.932 470.917 102.348 470.917 99.0042V75.8242H481.633ZM502.771 82.3602C504.139 80.1309 505.913 78.3829 508.091 77.1162C510.321 75.8496 512.854 75.2162 515.691 75.2162V86.3882H512.879C509.535 86.3882 507.002 87.1736 505.279 88.7442C503.607 90.3149 502.771 93.0509 502.771 96.9522V117.928H492.131V75.8242H502.771V82.3602ZM533.498 82.3602C534.866 80.1309 536.639 78.3829 538.818 77.1162C541.047 75.8496 543.581 75.2162 546.418 75.2162V86.3882H543.606C540.262 86.3882 537.729 87.1736 536.006 88.7442C534.334 90.3149 533.498 93.0509 533.498 96.9522V117.928H522.858V75.8242H533.498V82.3602ZM592.725 95.9642C592.725 97.4842 592.623 98.8522 592.421 100.068H561.641C561.894 103.108 562.958 105.49 564.833 107.212C566.707 108.935 569.013 109.796 571.749 109.796C575.701 109.796 578.513 108.099 580.185 104.704H591.661C590.445 108.758 588.114 112.102 584.669 114.736C581.223 117.32 576.993 118.612 571.977 118.612C567.923 118.612 564.275 117.726 561.033 115.952C557.841 114.128 555.333 111.57 553.509 108.276C551.735 104.983 550.849 101.183 550.849 96.8762C550.849 92.5189 551.735 88.6936 553.509 85.4002C555.282 82.1069 557.765 79.5736 560.957 77.8002C564.149 76.0269 567.822 75.1402 571.977 75.1402C575.979 75.1402 579.551 76.0016 582.693 77.7242C585.885 79.4469 588.342 81.9042 590.065 85.0962C591.838 88.2376 592.725 91.8602 592.725 95.9642ZM581.705 92.9242C581.654 90.1882 580.666 88.0096 578.741 86.3882C576.815 84.7162 574.459 83.8802 571.673 83.8802C569.038 83.8802 566.809 84.6909 564.985 86.3122C563.211 87.8829 562.122 90.0869 561.717 92.9242H581.705ZM623.823 75.2162C628.839 75.2162 632.892 76.8122 635.983 80.0042C639.073 83.1456 640.619 87.5536 640.619 93.2282V117.928H629.979V94.6722C629.979 91.3282 629.143 88.7696 627.471 86.9962C625.799 85.1722 623.519 84.2602 620.631 84.2602C617.692 84.2602 615.361 85.1722 613.639 86.9962C611.967 88.7696 611.131 91.3282 611.131 94.6722V117.928H600.491V75.8242H611.131V81.0682C612.549 79.2442 614.348 77.8256 616.527 76.8122C618.756 75.7482 621.188 75.2162 623.823 75.2162ZM648.001 96.8762C648.001 92.5189 648.888 88.7189 650.661 85.4762C652.434 82.1829 654.892 79.6496 658.033 77.8762C661.174 76.0522 664.772 75.1402 668.825 75.1402C674.044 75.1402 678.35 76.4576 681.745 79.0922C685.19 81.6762 687.496 85.3242 688.661 90.0362H677.185C676.577 88.2122 675.538 86.7936 674.069 85.7802C672.65 84.7162 670.877 84.1842 668.749 84.1842C665.709 84.1842 663.302 85.2989 661.529 87.5282C659.756 89.7069 658.869 92.8229 658.869 96.8762C658.869 100.879 659.756 103.995 661.529 106.224C663.302 108.403 665.709 109.492 668.749 109.492C673.056 109.492 675.868 107.567 677.185 103.716H688.661C687.496 108.276 685.19 111.899 681.745 114.584C678.3 117.27 673.993 118.612 668.825 118.612C664.772 118.612 661.174 117.726 658.033 115.952C654.892 114.128 652.434 111.595 650.661 108.352C648.888 105.059 648.001 101.234 648.001 96.8762ZM736.736 75.8242L710.668 137.84H699.344L708.464 116.864L691.592 75.8242H703.524L714.392 105.236L725.412 75.8242H736.736Z" fill="url(#paint1_linear_1_1028)"/>
<path d="M447.456 166.956V177.167H430.648V230.03H417.997V177.167H401.189V166.956H447.456ZM469.337 187.74C470.963 185.089 473.072 183.011 475.662 181.505C478.313 179.998 481.325 179.245 484.699 179.245V192.529H481.355C477.379 192.529 474.367 193.463 472.319 195.33C470.331 197.198 469.337 200.451 469.337 205.089V230.03H456.686V179.968H469.337V187.74ZM489.967 204.818C489.967 199.758 490.961 195.27 492.949 191.354C494.997 187.438 497.738 184.426 501.172 182.318C504.666 180.209 508.551 179.155 512.828 179.155C516.563 179.155 519.817 179.908 522.588 181.414C525.419 182.92 527.678 184.818 529.365 187.107V179.968H542.106V230.03H529.365V222.71C527.738 225.06 525.479 227.018 522.588 228.584C519.756 230.09 516.473 230.843 512.738 230.843C508.521 230.843 504.666 229.759 501.172 227.59C497.738 225.421 494.997 222.379 492.949 218.463C490.961 214.487 489.967 209.939 489.967 204.818ZM529.365 204.999C529.365 201.927 528.763 199.306 527.558 197.137C526.353 194.908 524.726 193.222 522.678 192.077C520.63 190.872 518.431 190.27 516.082 190.27C513.732 190.27 511.563 190.842 509.575 191.987C507.587 193.131 505.961 194.818 504.696 197.047C503.491 199.216 502.888 201.806 502.888 204.818C502.888 207.83 503.491 210.481 504.696 212.77C505.961 214.999 507.587 216.716 509.575 217.921C511.624 219.126 513.792 219.728 516.082 219.728C518.431 219.728 520.63 219.156 522.678 218.011C524.726 216.806 526.353 215.12 527.558 212.951C528.763 210.722 529.365 208.071 529.365 204.999ZM551.209 204.999C551.209 199.818 552.263 195.3 554.372 191.445C556.48 187.529 559.402 184.517 563.137 182.408C566.872 180.239 571.149 179.155 575.968 179.155C582.173 179.155 587.294 180.721 591.33 183.854C595.427 186.926 598.168 191.264 599.553 196.866H585.908C585.185 194.698 583.951 193.011 582.203 191.806C580.517 190.541 578.408 189.908 575.878 189.908C572.264 189.908 569.402 191.234 567.294 193.884C565.185 196.475 564.131 200.18 564.131 204.999C564.131 209.758 565.185 213.463 567.294 216.114C569.402 218.704 572.264 219.999 575.878 219.999C580.999 219.999 584.342 217.71 585.908 213.132H599.553C598.168 218.554 595.427 222.861 591.33 226.054C587.234 229.247 582.113 230.843 575.968 230.843C571.149 230.843 566.872 229.789 563.137 227.68C559.402 225.511 556.48 222.499 554.372 218.644C552.263 214.728 551.209 210.18 551.209 204.999ZM638.46 230.03L621.472 208.704V230.03H608.821V163.161H621.472V201.204L638.28 179.968H654.726L632.677 205.089L654.906 230.03H638.46ZM708.129 203.915C708.129 205.722 708.009 207.348 707.768 208.794H671.17C671.472 212.409 672.737 215.24 674.966 217.288C677.195 219.337 679.936 220.361 683.189 220.361C687.888 220.361 691.231 218.343 693.219 214.306H706.864C705.418 219.126 702.647 223.102 698.55 226.234C694.454 229.307 689.424 230.843 683.46 230.843C678.64 230.843 674.303 229.789 670.447 227.68C666.652 225.511 663.67 222.469 661.502 218.554C659.393 214.638 658.339 210.12 658.339 204.999C658.339 199.818 659.393 195.27 661.502 191.354C663.61 187.438 666.562 184.426 670.357 182.318C674.152 180.209 678.52 179.155 683.46 179.155C688.219 179.155 692.466 180.179 696.201 182.227C699.996 184.276 702.918 187.197 704.966 190.993C707.075 194.728 708.129 199.035 708.129 203.915ZM695.026 200.3C694.966 197.047 693.791 194.457 691.502 192.529C689.213 190.541 686.412 189.547 683.098 189.547C679.966 189.547 677.315 190.511 675.146 192.439C673.038 194.306 671.743 196.927 671.261 200.3H695.026ZM730.014 187.74C731.64 185.089 733.749 183.011 736.339 181.505C738.99 179.998 742.002 179.245 745.376 179.245V192.529H742.032C738.056 192.529 735.044 193.463 732.996 195.33C731.008 197.198 730.014 200.451 730.014 205.089V230.03H717.363V179.968H730.014V187.74Z" fill="url(#paint2_linear_1_1028)"/>
<path d="M836.625 72.3468V293.869C836.625 315.5 853.343 332.961 874.054 332.961H1086.15" stroke="url(#paint3_linear_1_1028)" stroke-width="24.6445" stroke-miterlimit="10" stroke-linecap="round" stroke-linejoin="round"/>
<path d="M874.054 267.807L931.32 197.963C940.802 186.496 957.645 185.714 967.875 196.529L979.728 208.908C989.958 219.594 1006.8 218.942 1016.28 207.475L1073.67 137.5" stroke="url(#paint4_linear_1_1028)" stroke-width="24.6445" stroke-miterlimit="10" stroke-linecap="round" stroke-linejoin="round"/>
</g>
<defs>
<filter id="filter0_d_1_1028" x="55.3819" y="46.2854" width="1058.88" height="319.064" filterUnits="userSpaceOnUse" color-interpolation-filters="sRGB">
<feFlood flood-opacity="0" result="BackgroundImageFix"/>
<feColorMatrix in="SourceAlpha" type="matrix" values="0 0 0 0 0 0 0 0 0 0 0 0 0 0 0 0 0 0 127 0" result="hardAlpha"/>
<feOffset dy="3.16353"/>
<feGaussianBlur stdDeviation="1.58176"/>
<feComposite in2="hardAlpha" operator="out"/>
<feColorMatrix type="matrix" values="0 0 0 0 0 0 0 0 0 0 0 0 0 0 0 0 0 0 0.5 0"/>
<feBlend mode="normal" in2="BackgroundImageFix" result="effect1_dropShadow_1_1028"/>
<feBlend mode="normal" in="SourceGraphic" in2="effect1_dropShadow_1_1028" result="shape"/>
</filter>
<linearGradient id="paint0_linear_1_1028" x1="1255.84" y1="52.9128" x2="552.182" y2="788.414" gradientUnits="userSpaceOnUse">
<stop stop-color="#121212"/>
<stop offset="1" stop-color="#247940" stop-opacity="0"/>
</linearGradient>
<linearGradient id="paint1_linear_1_1028" x1="46" y1="106.819" x2="737.102" y2="118.888" gradientUnits="userSpaceOnUse">
<stop stop-color="#00CE2C"/>
<stop offset="0.492615" stop-color="#AEDF23"/>
<stop offset="1" stop-color="#A3DC00"/>
</linearGradient>
<linearGradient id="paint2_linear_1_1028" x1="378.653" y1="202.92" x2="747.675" y2="206.36" gradientUnits="userSpaceOnUse">
<stop stop-color="#00CE2C"/>
<stop offset="0.492615" stop-color="#AEDF23"/>
<stop offset="1" stop-color="#A3DC00"/>
</linearGradient>
<linearGradient id="paint3_linear_1_1028" x1="961.388" y1="72.3468" x2="961.388" y2="332.961" gradientUnits="userSpaceOnUse">
<stop stop-color="#2ADD50"/>
<stop offset="1" stop-color="#AFDD2A"/>
</linearGradient>
<linearGradient id="paint4_linear_1_1028" x1="973.864" y1="137.5" x2="973.864" y2="267.807" gradientUnits="userSpaceOnUse">
<stop stop-color="#2ADD50"/>
<stop offset="1" stop-color="#AFDD2A"/>
</linearGradient>
</defs>
</svg>
