<svg width="30" height="30" viewBox="0 0 20 20" fill="none" xmlns="http://www.w3.org/2000/svg">
<path d="M17.5363 10.0001C17.5376 11.0977 17.3308 12.1847 16.928 13.1983C16.5251 14.2119 15.9342 15.132 15.1892 15.9055C14.4503 16.6766 13.5733 17.2879 12.6083 17.7044C11.6433 18.121 10.6093 18.3348 9.56526 18.3334C5.16287 18.3334 1.59425 14.6026 1.59425 10.0001C1.59138 7.86331 2.37648 5.80761 3.78628 4.26051C4.53006 3.43986 5.42623 2.78655 6.41991 2.34056C7.41359 1.89457 8.48388 1.66529 9.56526 1.66675C10.6093 1.66541 11.6433 1.87914 12.6083 2.29573C13.5733 2.71232 14.4503 3.32361 15.1892 4.09467C15.9342 4.86813 16.5251 5.78824 16.928 6.80184C17.3308 7.81545 17.5376 8.90247 17.5363 10.0001Z" stroke="currentColor" stroke-width="2" stroke-linecap="round" stroke-linejoin="round"/>
<path d="M17.5362 9.99998C16.3733 9.99998 13.1649 9.54165 10.2934 10.8596C7.17392 12.2916 4.91533 14.5133 3.93091 15.8946" stroke="currentColor" stroke-width="2" stroke-linecap="round" stroke-linejoin="round"/>
<path d="M6.57617 2.27271C7.82364 3.47645 10.5457 6.54104 11.5581 9.58354C12.5704 12.626 12.945 16.3669 13.1762 17.4315" stroke="currentColor" stroke-width="2" stroke-linecap="round" stroke-linejoin="round"/>
<path d="M1.65564 8.9583C3.16136 9.0533 7.14727 9.13872 9.69799 7.99997C12.2487 6.86122 14.4435 4.76663 15.1964 4.10205M2.19209 13.1721C2.89457 14.9494 4.16129 16.4195 5.77905 17.335" stroke="currentColor" stroke-width="2" stroke-linecap="round" stroke-linejoin="round"/>
<path d="M1.59425 10.0001C1.59138 7.86331 2.37648 5.80761 3.78628 4.26051C4.53006 3.43986 5.42623 2.78655 6.41991 2.34056C7.41359 1.89457 8.48388 1.66529 9.56526 1.66675M12.7537 2.36009C13.6616 2.775 14.4875 3.36324 15.1892 4.09467C15.9342 4.86813 16.5251 5.78824 16.928 6.80184C17.3308 7.81545 17.5376 8.90247 17.5363 10.0001C17.5363 11.0259 17.3589 12.0088 17.0341 12.9168M9.56526 18.3334C10.6093 18.3348 11.6433 18.121 12.6083 17.7044C13.5733 17.2879 14.4503 16.6766 15.1892 15.9055" stroke="currentColor" stroke-width="2" stroke-linecap="round" stroke-linejoin="round"/>
</svg>
