<svg width="1440" height="462" viewBox="0 0 1440 462" fill="none" xmlns="http://www.w3.org/2000/svg">
<rect width="1440" height="461.027" fill="url(#paint0_linear_442_39)"/>
<g filter="url(#filter0_d_442_39)">
<path d="M437.589 324.591L433.689 320.966C432.839 321.216 431.947 321.341 431.014 321.341C429.397 321.341 427.931 320.966 426.614 320.216C425.297 319.449 424.256 318.391 423.489 317.041C422.739 315.674 422.364 314.133 422.364 312.416C422.364 310.699 422.739 309.166 423.489 307.816C424.256 306.449 425.297 305.391 426.614 304.641C427.931 303.874 429.397 303.491 431.014 303.491C432.647 303.491 434.122 303.874 435.439 304.641C436.756 305.391 437.789 306.449 438.539 307.816C439.289 309.166 439.664 310.699 439.664 312.416C439.664 314.183 439.272 315.758 438.489 317.141C437.706 318.508 436.631 319.558 435.264 320.291L439.939 324.591H437.589ZM424.164 312.416C424.164 313.899 424.464 315.208 425.064 316.341C425.664 317.458 426.481 318.316 427.514 318.916C428.547 319.516 429.714 319.816 431.014 319.816C432.314 319.816 433.481 319.516 434.514 318.916C435.547 318.316 436.364 317.458 436.964 316.341C437.564 315.208 437.864 313.899 437.864 312.416C437.864 310.933 437.564 309.633 436.964 308.516C436.364 307.399 435.547 306.541 434.514 305.941C433.481 305.341 432.314 305.041 431.014 305.041C429.714 305.041 428.547 305.341 427.514 305.941C426.481 306.541 425.664 307.399 425.064 308.516C424.464 309.633 424.164 310.933 424.164 312.416ZM454.716 307.516V321.166H452.966V318.766C452.566 319.616 451.949 320.266 451.116 320.716C450.282 321.166 449.349 321.391 448.316 321.391C446.682 321.391 445.349 320.891 444.316 319.891C443.282 318.874 442.766 317.408 442.766 315.491V307.516H444.491V315.291C444.491 316.774 444.857 317.908 445.591 318.691C446.341 319.474 447.357 319.866 448.641 319.866C449.957 319.866 451.007 319.449 451.791 318.616C452.574 317.783 452.966 316.558 452.966 314.941V307.516H454.716ZM464.686 321.366C463.403 321.366 462.244 321.083 461.211 320.516C460.194 319.933 459.386 319.116 458.786 318.066C458.203 316.999 457.911 315.758 457.911 314.341C457.911 312.924 458.211 311.691 458.811 310.641C459.411 309.574 460.228 308.758 461.261 308.191C462.294 307.608 463.453 307.316 464.736 307.316C466.019 307.316 467.178 307.608 468.211 308.191C469.261 308.758 470.078 309.574 470.661 310.641C471.261 311.691 471.561 312.924 471.561 314.341C471.561 315.741 471.261 316.974 470.661 318.041C470.061 319.108 469.236 319.933 468.186 320.516C467.136 321.083 465.969 321.366 464.686 321.366ZM464.686 319.841C465.586 319.841 466.419 319.641 467.186 319.241C467.953 318.824 468.569 318.208 469.036 317.391C469.519 316.558 469.761 315.541 469.761 314.341C469.761 313.141 469.528 312.133 469.061 311.316C468.594 310.483 467.978 309.866 467.211 309.466C466.444 309.049 465.611 308.841 464.711 308.841C463.811 308.841 462.978 309.049 462.211 309.466C461.444 309.866 460.828 310.483 460.361 311.316C459.911 312.133 459.686 313.141 459.686 314.341C459.686 315.541 459.911 316.558 460.361 317.391C460.828 318.208 461.436 318.824 462.186 319.241C462.953 319.641 463.786 319.841 464.686 319.841ZM477.026 308.991V317.466C477.026 318.299 477.184 318.874 477.501 319.191C477.818 319.508 478.376 319.666 479.176 319.666H480.776V321.166H478.901C477.668 321.166 476.751 320.883 476.151 320.316C475.551 319.733 475.251 318.783 475.251 317.466V308.991H473.351V307.516H475.251V304.091H477.026V307.516H480.776V308.991H477.026ZM496.012 313.641C496.012 314.241 495.995 314.699 495.962 315.016H484.637C484.687 316.049 484.937 316.933 485.387 317.666C485.837 318.399 486.429 318.958 487.162 319.341C487.895 319.708 488.695 319.891 489.562 319.891C490.695 319.891 491.645 319.616 492.412 319.066C493.195 318.516 493.712 317.774 493.962 316.841H495.812C495.479 318.174 494.762 319.266 493.662 320.116C492.579 320.949 491.212 321.366 489.562 321.366C488.279 321.366 487.129 321.083 486.112 320.516C485.095 319.933 484.295 319.116 483.712 318.066C483.145 316.999 482.862 315.758 482.862 314.341C482.862 312.924 483.145 311.683 483.712 310.616C484.279 309.549 485.07 308.733 486.087 308.166C487.104 307.599 488.262 307.316 489.562 307.316C490.862 307.316 491.995 307.599 492.962 308.166C493.945 308.733 494.695 309.499 495.212 310.466C495.745 311.416 496.012 312.474 496.012 313.641ZM494.237 313.591C494.254 312.574 494.045 311.708 493.612 310.991C493.195 310.274 492.62 309.733 491.887 309.366C491.154 308.999 490.354 308.816 489.487 308.816C488.187 308.816 487.079 309.233 486.162 310.066C485.245 310.899 484.737 312.074 484.637 313.591H494.237ZM503.914 321.366C502.347 321.366 501.064 321.008 500.064 320.291C499.081 319.558 498.531 318.566 498.414 317.316H500.214C500.297 318.083 500.656 318.708 501.289 319.191C501.939 319.658 502.806 319.891 503.889 319.891C504.839 319.891 505.581 319.666 506.114 319.216C506.664 318.766 506.939 318.208 506.939 317.541C506.939 317.074 506.789 316.691 506.489 316.391C506.189 316.091 505.806 315.858 505.339 315.691C504.889 315.508 504.272 315.316 503.489 315.116C502.472 314.849 501.647 314.583 501.014 314.316C500.381 314.049 499.839 313.658 499.389 313.141C498.956 312.608 498.739 311.899 498.739 311.016C498.739 310.349 498.939 309.733 499.339 309.166C499.739 308.599 500.306 308.149 501.039 307.816C501.772 307.483 502.606 307.316 503.539 307.316C505.006 307.316 506.189 307.691 507.089 308.441C507.989 309.174 508.472 310.191 508.539 311.491H506.789C506.739 310.691 506.422 310.049 505.839 309.566C505.272 309.066 504.489 308.816 503.489 308.816C502.606 308.816 501.889 309.024 501.339 309.441C500.789 309.858 500.514 310.374 500.514 310.991C500.514 311.524 500.672 311.966 500.989 312.316C501.322 312.649 501.731 312.916 502.214 313.116C502.697 313.299 503.347 313.508 504.164 313.741C505.147 314.008 505.931 314.266 506.514 314.516C507.097 314.766 507.597 315.133 508.014 315.616C508.431 316.099 508.647 316.741 508.664 317.541C508.664 318.274 508.464 318.933 508.064 319.516C507.664 320.083 507.106 320.533 506.389 320.866C505.672 321.199 504.847 321.366 503.914 321.366ZM524.193 308.991H521.018V321.166H519.268V308.991H517.368V307.516H519.268V306.566C519.268 305.083 519.643 303.991 520.393 303.291C521.16 302.591 522.393 302.241 524.093 302.241V303.741C522.96 303.741 522.16 303.958 521.693 304.391C521.243 304.824 521.018 305.549 521.018 306.566V307.516H524.193V308.991ZM532.923 321.366C531.64 321.366 530.482 321.083 529.448 320.516C528.432 319.933 527.623 319.116 527.023 318.066C526.44 316.999 526.148 315.758 526.148 314.341C526.148 312.924 526.448 311.691 527.048 310.641C527.648 309.574 528.465 308.758 529.498 308.191C530.532 307.608 531.69 307.316 532.973 307.316C534.257 307.316 535.415 307.608 536.448 308.191C537.498 308.758 538.315 309.574 538.898 310.641C539.498 311.691 539.798 312.924 539.798 314.341C539.798 315.741 539.498 316.974 538.898 318.041C538.298 319.108 537.473 319.933 536.423 320.516C535.373 321.083 534.207 321.366 532.923 321.366ZM532.923 319.841C533.823 319.841 534.657 319.641 535.423 319.241C536.19 318.824 536.807 318.208 537.273 317.391C537.757 316.558 537.998 315.541 537.998 314.341C537.998 313.141 537.765 312.133 537.298 311.316C536.832 310.483 536.215 309.866 535.448 309.466C534.682 309.049 533.848 308.841 532.948 308.841C532.048 308.841 531.215 309.049 530.448 309.466C529.682 309.866 529.065 310.483 528.598 311.316C528.148 312.133 527.923 313.141 527.923 314.341C527.923 315.541 528.148 316.558 528.598 317.391C529.065 318.208 529.673 318.824 530.423 319.241C531.19 319.641 532.023 319.841 532.923 319.841ZM544.738 309.941C545.122 309.091 545.705 308.433 546.488 307.966C547.288 307.499 548.263 307.266 549.413 307.266V309.091H548.938C547.672 309.091 546.655 309.433 545.888 310.116C545.122 310.799 544.738 311.941 544.738 313.541V321.166H542.988V307.516H544.738V309.941ZM561.181 308.991V317.466C561.181 318.299 561.34 318.874 561.656 319.191C561.973 319.508 562.531 319.666 563.331 319.666H564.931V321.166H563.056C561.823 321.166 560.906 320.883 560.306 320.316C559.706 319.733 559.406 318.783 559.406 317.466V308.991H557.506V307.516H559.406V304.091H561.181V307.516H564.931V308.991H561.181ZM574.317 307.266C575.351 307.266 576.276 307.483 577.092 307.916C577.926 308.349 578.576 309.016 579.042 309.916C579.526 310.799 579.767 311.883 579.767 313.166V321.166H578.042V313.366C578.042 311.883 577.667 310.749 576.917 309.966C576.184 309.183 575.176 308.791 573.892 308.791C572.576 308.791 571.526 309.208 570.742 310.041C569.959 310.874 569.567 312.099 569.567 313.716V321.166H567.817V302.666H569.567V309.841C570.001 309.024 570.634 308.391 571.467 307.941C572.317 307.491 573.267 307.266 574.317 307.266ZM595.988 313.641C595.988 314.241 595.971 314.699 595.938 315.016H584.613C584.663 316.049 584.913 316.933 585.363 317.666C585.813 318.399 586.404 318.958 587.138 319.341C587.871 319.708 588.671 319.891 589.538 319.891C590.671 319.891 591.621 319.616 592.388 319.066C593.171 318.516 593.688 317.774 593.938 316.841H595.788C595.454 318.174 594.738 319.266 593.638 320.116C592.554 320.949 591.188 321.366 589.538 321.366C588.254 321.366 587.104 321.083 586.088 320.516C585.071 319.933 584.271 319.116 583.688 318.066C583.121 316.999 582.838 315.758 582.838 314.341C582.838 312.924 583.121 311.683 583.688 310.616C584.254 309.549 585.046 308.733 586.063 308.166C587.079 307.599 588.238 307.316 589.538 307.316C590.838 307.316 591.971 307.599 592.938 308.166C593.921 308.733 594.671 309.499 595.188 310.466C595.721 311.416 595.988 312.474 595.988 313.641ZM594.213 313.591C594.229 312.574 594.021 311.708 593.588 310.991C593.171 310.274 592.596 309.733 591.863 309.366C591.129 308.999 590.329 308.816 589.463 308.816C588.163 308.816 587.054 309.233 586.138 310.066C585.221 310.899 584.713 312.074 584.613 313.591H594.213ZM605.25 314.316C605.25 312.916 605.533 311.691 606.1 310.641C606.666 309.574 607.441 308.758 608.425 308.191C609.425 307.608 610.55 307.316 611.8 307.316C613 307.316 614.083 307.608 615.05 308.191C616.016 308.774 616.725 309.533 617.175 310.466V302.666H618.925V321.166H617.175V318.116C616.758 319.066 616.075 319.849 615.125 320.466C614.175 321.066 613.058 321.366 611.775 321.366C610.525 321.366 609.4 321.074 608.4 320.491C607.416 319.908 606.641 319.083 606.075 318.016C605.525 316.949 605.25 315.716 605.25 314.316ZM617.175 314.341C617.175 313.241 616.95 312.274 616.5 311.441C616.05 310.608 615.433 309.966 614.65 309.516C613.883 309.066 613.033 308.841 612.1 308.841C611.133 308.841 610.266 309.058 609.5 309.491C608.733 309.924 608.125 310.558 607.675 311.391C607.241 312.208 607.025 313.183 607.025 314.316C607.025 315.433 607.241 316.416 607.675 317.266C608.125 318.099 608.733 318.741 609.5 319.191C610.266 319.624 611.133 319.841 612.1 319.841C613.033 319.841 613.883 319.616 614.65 319.166C615.433 318.716 616.05 318.074 616.5 317.241C616.95 316.408 617.175 315.441 617.175 314.341ZM628.895 321.366C627.612 321.366 626.453 321.083 625.42 320.516C624.403 319.933 623.595 319.116 622.995 318.066C622.412 316.999 622.12 315.758 622.12 314.341C622.12 312.924 622.42 311.691 623.02 310.641C623.62 309.574 624.437 308.758 625.47 308.191C626.503 307.608 627.662 307.316 628.945 307.316C630.228 307.316 631.387 307.608 632.42 308.191C633.47 308.758 634.287 309.574 634.87 310.641C635.47 311.691 635.77 312.924 635.77 314.341C635.77 315.741 635.47 316.974 634.87 318.041C634.27 319.108 633.445 319.933 632.395 320.516C631.345 321.083 630.178 321.366 628.895 321.366ZM628.895 319.841C629.795 319.841 630.628 319.641 631.395 319.241C632.162 318.824 632.778 318.208 633.245 317.391C633.728 316.558 633.97 315.541 633.97 314.341C633.97 313.141 633.737 312.133 633.27 311.316C632.803 310.483 632.187 309.866 631.42 309.466C630.653 309.049 629.82 308.841 628.92 308.841C628.02 308.841 627.187 309.049 626.42 309.466C625.653 309.866 625.037 310.483 624.57 311.316C624.12 312.133 623.895 313.141 623.895 314.341C623.895 315.541 624.12 316.558 624.57 317.391C625.037 318.208 625.645 318.824 626.395 319.241C627.162 319.641 627.995 319.841 628.895 319.841ZM640.71 302.666V321.166H638.96V302.666H640.71ZM646.423 302.666V321.166H644.673V302.666H646.423ZM649.586 314.316C649.586 312.916 649.861 311.691 650.411 310.641C650.977 309.574 651.752 308.758 652.736 308.191C653.736 307.608 654.861 307.316 656.111 307.316C657.411 307.316 658.527 307.616 659.461 308.216C660.411 308.816 661.094 309.583 661.511 310.516V307.516H663.261V321.166H661.511V318.141C661.077 319.074 660.386 319.849 659.436 320.466C658.502 321.066 657.386 321.366 656.086 321.366C654.852 321.366 653.736 321.074 652.736 320.491C651.752 319.908 650.977 319.083 650.411 318.016C649.861 316.949 649.586 315.716 649.586 314.316ZM661.511 314.341C661.511 313.241 661.286 312.274 660.836 311.441C660.386 310.608 659.769 309.966 658.986 309.516C658.219 309.066 657.369 308.841 656.436 308.841C655.469 308.841 654.602 309.058 653.836 309.491C653.069 309.924 652.461 310.558 652.011 311.391C651.577 312.208 651.361 313.183 651.361 314.316C651.361 315.433 651.577 316.416 652.011 317.266C652.461 318.099 653.069 318.741 653.836 319.191C654.602 319.624 655.469 319.841 656.436 319.841C657.369 319.841 658.219 319.616 658.986 319.166C659.769 318.716 660.386 318.074 660.836 317.241C661.286 316.408 661.511 315.441 661.511 314.341ZM669.006 309.941C669.389 309.091 669.973 308.433 670.756 307.966C671.556 307.499 672.531 307.266 673.681 307.266V309.091H673.206C671.939 309.091 670.923 309.433 670.156 310.116C669.389 310.799 669.006 311.941 669.006 313.541V321.166H667.256V307.516H669.006V309.941ZM682.374 314.316C682.374 312.916 682.649 311.691 683.199 310.641C683.765 309.574 684.54 308.758 685.524 308.191C686.524 307.608 687.649 307.316 688.899 307.316C690.199 307.316 691.315 307.616 692.249 308.216C693.199 308.816 693.882 309.583 694.299 310.516V307.516H696.049V321.166H694.299V318.141C693.865 319.074 693.174 319.849 692.224 320.466C691.29 321.066 690.174 321.366 688.874 321.366C687.64 321.366 686.524 321.074 685.524 320.491C684.54 319.908 683.765 319.083 683.199 318.016C682.649 316.949 682.374 315.716 682.374 314.316ZM694.299 314.341C694.299 313.241 694.074 312.274 693.624 311.441C693.174 310.608 692.557 309.966 691.774 309.516C691.007 309.066 690.157 308.841 689.224 308.841C688.257 308.841 687.39 309.058 686.624 309.491C685.857 309.924 685.249 310.558 684.799 311.391C684.365 312.208 684.149 313.183 684.149 314.316C684.149 315.433 684.365 316.416 684.799 317.266C685.249 318.099 685.857 318.741 686.624 319.191C687.39 319.624 688.257 319.841 689.224 319.841C690.157 319.841 691.007 319.616 691.774 319.166C692.557 318.716 693.174 318.074 693.624 317.241C694.074 316.408 694.299 315.441 694.299 314.341ZM706.444 307.266C708.077 307.266 709.411 307.774 710.444 308.791C711.477 309.791 711.994 311.249 711.994 313.166V321.166H710.269V313.366C710.269 311.883 709.894 310.749 709.144 309.966C708.411 309.183 707.402 308.791 706.119 308.791C704.802 308.791 703.752 309.208 702.969 310.041C702.186 310.874 701.794 312.099 701.794 313.716V321.166H700.044V307.516H701.794V309.841C702.227 309.008 702.852 308.374 703.669 307.941C704.486 307.491 705.411 307.266 706.444 307.266ZM715.064 314.316C715.064 312.916 715.348 311.691 715.914 310.641C716.481 309.574 717.256 308.758 718.239 308.191C719.239 307.608 720.364 307.316 721.614 307.316C722.814 307.316 723.898 307.608 724.864 308.191C725.831 308.774 726.539 309.533 726.989 310.466V302.666H728.739V321.166H726.989V318.116C726.573 319.066 725.889 319.849 724.939 320.466C723.989 321.066 722.873 321.366 721.589 321.366C720.339 321.366 719.214 321.074 718.214 320.491C717.231 319.908 716.456 319.083 715.889 318.016C715.339 316.949 715.064 315.716 715.064 314.316ZM726.989 314.341C726.989 313.241 726.764 312.274 726.314 311.441C725.864 310.608 725.248 309.966 724.464 309.516C723.698 309.066 722.848 308.841 721.914 308.841C720.948 308.841 720.081 309.058 719.314 309.491C718.548 309.924 717.939 310.558 717.489 311.391C717.056 312.208 716.839 313.183 716.839 314.316C716.839 315.433 717.056 316.416 717.489 317.266C717.939 318.099 718.548 318.741 719.314 319.191C720.081 319.624 720.948 319.841 721.914 319.841C722.848 319.841 723.698 319.616 724.464 319.166C725.248 318.716 725.864 318.074 726.314 317.241C726.764 316.408 726.989 315.441 726.989 314.341ZM745.57 321.366C744.286 321.366 743.128 321.083 742.095 320.516C741.078 319.933 740.27 319.116 739.67 318.066C739.086 316.999 738.795 315.758 738.795 314.341C738.795 312.924 739.095 311.691 739.695 310.641C740.295 309.574 741.111 308.758 742.145 308.191C743.178 307.608 744.336 307.316 745.62 307.316C746.903 307.316 748.061 307.608 749.095 308.191C750.145 308.758 750.961 309.574 751.545 310.641C752.145 311.691 752.445 312.924 752.445 314.341C752.445 315.741 752.145 316.974 751.545 318.041C750.945 319.108 750.12 319.933 749.07 320.516C748.02 321.083 746.853 321.366 745.57 321.366ZM745.57 319.841C746.47 319.841 747.303 319.641 748.07 319.241C748.836 318.824 749.453 318.208 749.92 317.391C750.403 316.558 750.645 315.541 750.645 314.341C750.645 313.141 750.411 312.133 749.945 311.316C749.478 310.483 748.861 309.866 748.095 309.466C747.328 309.049 746.495 308.841 745.595 308.841C744.695 308.841 743.861 309.049 743.095 309.466C742.328 309.866 741.711 310.483 741.245 311.316C740.795 312.133 740.57 313.141 740.57 314.341C740.57 315.541 740.795 316.558 741.245 317.391C741.711 318.208 742.32 318.824 743.07 319.241C743.836 319.641 744.67 319.841 745.57 319.841ZM757.91 308.991V317.466C757.91 318.299 758.068 318.874 758.385 319.191C758.701 319.508 759.26 319.666 760.06 319.666H761.66V321.166H759.785C758.551 321.166 757.635 320.883 757.035 320.316C756.435 319.733 756.135 318.783 756.135 317.466V308.991H754.235V307.516H756.135V304.091H757.91V307.516H761.66V308.991H757.91ZM771.046 307.266C772.079 307.266 773.004 307.483 773.821 307.916C774.654 308.349 775.304 309.016 775.771 309.916C776.254 310.799 776.496 311.883 776.496 313.166V321.166H774.771V313.366C774.771 311.883 774.396 310.749 773.646 309.966C772.913 309.183 771.904 308.791 770.621 308.791C769.304 308.791 768.254 309.208 767.471 310.041C766.688 310.874 766.296 312.099 766.296 313.716V321.166H764.546V302.666H766.296V309.841C766.729 309.024 767.363 308.391 768.196 307.941C769.046 307.491 769.996 307.266 771.046 307.266ZM792.716 313.641C792.716 314.241 792.7 314.699 792.666 315.016H781.341C781.391 316.049 781.641 316.933 782.091 317.666C782.541 318.399 783.133 318.958 783.866 319.341C784.6 319.708 785.4 319.891 786.266 319.891C787.4 319.891 788.35 319.616 789.116 319.066C789.9 318.516 790.416 317.774 790.666 316.841H792.516C792.183 318.174 791.466 319.266 790.366 320.116C789.283 320.949 787.916 321.366 786.266 321.366C784.983 321.366 783.833 321.083 782.816 320.516C781.8 319.933 781 319.116 780.416 318.066C779.85 316.999 779.566 315.758 779.566 314.341C779.566 312.924 779.85 311.683 780.416 310.616C780.983 309.549 781.775 308.733 782.791 308.166C783.808 307.599 784.966 307.316 786.266 307.316C787.566 307.316 788.7 307.599 789.666 308.166C790.65 308.733 791.4 309.499 791.916 310.466C792.45 311.416 792.716 312.474 792.716 313.641ZM790.941 313.591C790.958 312.574 790.75 311.708 790.316 310.991C789.9 310.274 789.325 309.733 788.591 309.366C787.858 308.999 787.058 308.816 786.191 308.816C784.891 308.816 783.783 309.233 782.866 310.066C781.95 310.899 781.441 312.074 781.341 313.591H790.941ZM797.668 309.941C798.051 309.091 798.635 308.433 799.418 307.966C800.218 307.499 801.193 307.266 802.343 307.266V309.091H801.868C800.601 309.091 799.585 309.433 798.818 310.116C798.051 310.799 797.668 311.941 797.668 313.541V321.166H795.918V307.516H797.668V309.941ZM469.278 351.941C468.928 351.941 468.628 351.816 468.378 351.566C468.128 351.316 468.003 351.008 468.003 350.641C468.003 350.274 468.128 349.974 468.378 349.741C468.628 349.491 468.928 349.366 469.278 349.366C469.628 349.366 469.928 349.491 470.178 349.741C470.428 349.974 470.553 350.274 470.553 350.641C470.553 351.008 470.428 351.316 470.178 351.566C469.928 351.816 469.628 351.941 469.278 351.941ZM470.153 354.516V368.166H468.403V354.516H470.153ZM480.516 354.266C482.15 354.266 483.483 354.774 484.516 355.791C485.55 356.791 486.066 358.249 486.066 360.166V368.166H484.341V360.366C484.341 358.883 483.966 357.749 483.216 356.966C482.483 356.183 481.475 355.791 480.191 355.791C478.875 355.791 477.825 356.208 477.041 357.041C476.258 357.874 475.866 359.099 475.866 360.716V368.166H474.116V354.516H475.866V356.841C476.3 356.008 476.925 355.374 477.741 354.941C478.558 354.491 479.483 354.266 480.516 354.266ZM492.212 355.991V364.466C492.212 365.299 492.37 365.874 492.687 366.191C493.003 366.508 493.562 366.666 494.362 366.666H495.962V368.166H494.087C492.853 368.166 491.937 367.883 491.337 367.316C490.737 366.733 490.437 365.783 490.437 364.466V355.991H488.537V354.516H490.437V351.091H492.212V354.516H495.962V355.991H492.212ZM511.198 360.641C511.198 361.241 511.181 361.699 511.148 362.016H499.823C499.873 363.049 500.123 363.933 500.573 364.666C501.023 365.399 501.614 365.958 502.348 366.341C503.081 366.708 503.881 366.891 504.748 366.891C505.881 366.891 506.831 366.616 507.598 366.066C508.381 365.516 508.898 364.774 509.148 363.841H510.998C510.664 365.174 509.948 366.266 508.848 367.116C507.764 367.949 506.398 368.366 504.748 368.366C503.464 368.366 502.314 368.083 501.298 367.516C500.281 366.933 499.481 366.116 498.898 365.066C498.331 363.999 498.048 362.758 498.048 361.341C498.048 359.924 498.331 358.683 498.898 357.616C499.464 356.549 500.256 355.733 501.273 355.166C502.289 354.599 503.448 354.316 504.748 354.316C506.048 354.316 507.181 354.599 508.148 355.166C509.131 355.733 509.881 356.499 510.398 357.466C510.931 358.416 511.198 359.474 511.198 360.641ZM509.423 360.591C509.439 359.574 509.231 358.708 508.798 357.991C508.381 357.274 507.806 356.733 507.073 356.366C506.339 355.999 505.539 355.816 504.673 355.816C503.373 355.816 502.264 356.233 501.348 357.066C500.431 357.899 499.923 359.074 499.823 360.591H509.423ZM516.149 356.941C516.533 356.091 517.116 355.433 517.899 354.966C518.699 354.499 519.674 354.266 520.824 354.266V356.091H520.349C519.083 356.091 518.066 356.433 517.299 357.116C516.533 357.799 516.149 358.941 516.149 360.541V368.166H514.399V354.516H516.149V356.941ZM529.857 354.266C531.49 354.266 532.824 354.774 533.857 355.791C534.89 356.791 535.407 358.249 535.407 360.166V368.166H533.682V360.366C533.682 358.883 533.307 357.749 532.557 356.966C531.824 356.183 530.815 355.791 529.532 355.791C528.215 355.791 527.165 356.208 526.382 357.041C525.599 357.874 525.207 359.099 525.207 360.716V368.166H523.457V354.516H525.207V356.841C525.64 356.008 526.265 355.374 527.082 354.941C527.899 354.491 528.824 354.266 529.857 354.266ZM538.477 361.316C538.477 359.916 538.752 358.691 539.302 357.641C539.869 356.574 540.644 355.758 541.627 355.191C542.627 354.608 543.752 354.316 545.002 354.316C546.302 354.316 547.419 354.616 548.352 355.216C549.302 355.816 549.986 356.583 550.402 357.516V354.516H552.152V368.166H550.402V365.141C549.969 366.074 549.277 366.849 548.327 367.466C547.394 368.066 546.277 368.366 544.977 368.366C543.744 368.366 542.627 368.074 541.627 367.491C540.644 366.908 539.869 366.083 539.302 365.016C538.752 363.949 538.477 362.716 538.477 361.316ZM550.402 361.341C550.402 360.241 550.177 359.274 549.727 358.441C549.277 357.608 548.661 356.966 547.877 356.516C547.111 356.066 546.261 355.841 545.327 355.841C544.361 355.841 543.494 356.058 542.727 356.491C541.961 356.924 541.352 357.558 540.902 358.391C540.469 359.208 540.252 360.183 540.252 361.316C540.252 362.433 540.469 363.416 540.902 364.266C541.352 365.099 541.961 365.741 542.727 366.191C543.494 366.624 544.361 366.841 545.327 366.841C546.261 366.841 547.111 366.616 547.877 366.166C548.661 365.716 549.277 365.074 549.727 364.241C550.177 363.408 550.402 362.441 550.402 361.341ZM558.422 355.991V364.466C558.422 365.299 558.581 365.874 558.897 366.191C559.214 366.508 559.772 366.666 560.572 366.666H562.172V368.166H560.297C559.064 368.166 558.147 367.883 557.547 367.316C556.947 366.733 556.647 365.783 556.647 364.466V355.991H554.747V354.516H556.647V351.091H558.422V354.516H562.172V355.991H558.422ZM565.934 351.941C565.584 351.941 565.284 351.816 565.034 351.566C564.784 351.316 564.659 351.008 564.659 350.641C564.659 350.274 564.784 349.974 565.034 349.741C565.284 349.491 565.584 349.366 565.934 349.366C566.284 349.366 566.584 349.491 566.834 349.741C567.084 349.974 567.209 350.274 567.209 350.641C567.209 351.008 567.084 351.316 566.834 351.566C566.584 351.816 566.284 351.941 565.934 351.941ZM566.809 354.516V368.166H565.059V354.516H566.809ZM576.746 368.366C575.463 368.366 574.305 368.083 573.271 367.516C572.255 366.933 571.446 366.116 570.846 365.066C570.263 363.999 569.971 362.758 569.971 361.341C569.971 359.924 570.271 358.691 570.871 357.641C571.471 356.574 572.288 355.758 573.321 355.191C574.355 354.608 575.513 354.316 576.796 354.316C578.08 354.316 579.238 354.608 580.271 355.191C581.321 355.758 582.138 356.574 582.721 357.641C583.321 358.691 583.621 359.924 583.621 361.341C583.621 362.741 583.321 363.974 582.721 365.041C582.121 366.108 581.296 366.933 580.246 367.516C579.196 368.083 578.03 368.366 576.746 368.366ZM576.746 366.841C577.646 366.841 578.48 366.641 579.246 366.241C580.013 365.824 580.63 365.208 581.096 364.391C581.58 363.558 581.821 362.541 581.821 361.341C581.821 360.141 581.588 359.133 581.121 358.316C580.655 357.483 580.038 356.866 579.271 356.466C578.505 356.049 577.671 355.841 576.771 355.841C575.871 355.841 575.038 356.049 574.271 356.466C573.505 356.866 572.888 357.483 572.421 358.316C571.971 359.133 571.746 360.141 571.746 361.341C571.746 362.541 571.971 363.558 572.421 364.391C572.888 365.208 573.496 365.824 574.246 366.241C575.013 366.641 575.846 366.841 576.746 366.841ZM593.212 354.266C594.845 354.266 596.178 354.774 597.212 355.791C598.245 356.791 598.762 358.249 598.762 360.166V368.166H597.037V360.366C597.037 358.883 596.662 357.749 595.912 356.966C595.178 356.183 594.17 355.791 592.887 355.791C591.57 355.791 590.52 356.208 589.737 357.041C588.953 357.874 588.562 359.099 588.562 360.716V368.166H586.812V354.516H588.562V356.841C588.995 356.008 589.62 355.374 590.437 354.941C591.253 354.491 592.178 354.266 593.212 354.266ZM601.832 361.316C601.832 359.916 602.107 358.691 602.657 357.641C603.224 356.574 603.999 355.758 604.982 355.191C605.982 354.608 607.107 354.316 608.357 354.316C609.657 354.316 610.774 354.616 611.707 355.216C612.657 355.816 613.34 356.583 613.757 357.516V354.516H615.507V368.166H613.757V365.141C613.324 366.074 612.632 366.849 611.682 367.466C610.749 368.066 609.632 368.366 608.332 368.366C607.099 368.366 605.982 368.074 604.982 367.491C603.999 366.908 603.224 366.083 602.657 365.016C602.107 363.949 601.832 362.716 601.832 361.316ZM613.757 361.341C613.757 360.241 613.532 359.274 613.082 358.441C612.632 357.608 612.015 356.966 611.232 356.516C610.465 356.066 609.615 355.841 608.682 355.841C607.715 355.841 606.849 356.058 606.082 356.491C605.315 356.924 604.707 357.558 604.257 358.391C603.824 359.208 603.607 360.183 603.607 361.316C603.607 362.433 603.824 363.416 604.257 364.266C604.707 365.099 605.315 365.741 606.082 366.191C606.849 366.624 607.715 366.841 608.682 366.841C609.615 366.841 610.465 366.616 611.232 366.166C612.015 365.716 612.632 365.074 613.082 364.241C613.532 363.408 613.757 362.441 613.757 361.341ZM621.252 349.666V368.166H619.502V349.666H621.252ZM631.275 361.341C631.275 359.924 631.559 358.691 632.125 357.641C632.692 356.574 633.475 355.758 634.475 355.191C635.475 354.608 636.617 354.316 637.9 354.316C639.584 354.316 640.967 354.733 642.05 355.566C643.15 356.399 643.859 357.533 644.175 358.966H642.3C642.067 357.983 641.559 357.216 640.775 356.666C640.009 356.099 639.05 355.816 637.9 355.816C636.984 355.816 636.159 356.024 635.425 356.441C634.692 356.858 634.109 357.483 633.675 358.316C633.259 359.133 633.05 360.141 633.05 361.341C633.05 362.541 633.259 363.558 633.675 364.391C634.109 365.224 634.692 365.849 635.425 366.266C636.159 366.683 636.984 366.891 637.9 366.891C639.05 366.891 640.009 366.616 640.775 366.066C641.559 365.499 642.067 364.716 642.3 363.716H644.175C643.859 365.116 643.15 366.241 642.05 367.091C640.95 367.941 639.567 368.366 637.9 368.366C636.617 368.366 635.475 368.083 634.475 367.516C633.475 366.933 632.692 366.116 632.125 365.066C631.559 363.999 631.275 362.758 631.275 361.341ZM659.232 354.516V368.166H657.482V365.766C657.082 366.616 656.466 367.266 655.632 367.716C654.799 368.166 653.866 368.391 652.832 368.391C651.199 368.391 649.866 367.891 648.832 366.891C647.799 365.874 647.282 364.408 647.282 362.491V354.516H649.007V362.291C649.007 363.774 649.374 364.908 650.107 365.691C650.857 366.474 651.874 366.866 653.157 366.866C654.474 366.866 655.524 366.449 656.307 365.616C657.091 364.783 657.482 363.558 657.482 361.941V354.516H659.232ZM664.978 356.941C665.361 356.091 665.944 355.433 666.728 354.966C667.528 354.499 668.503 354.266 669.653 354.266V356.091H669.178C667.911 356.091 666.894 356.433 666.128 357.116C665.361 357.799 664.978 358.941 664.978 360.541V368.166H663.228V354.516H664.978V356.941ZM674.035 356.941C674.418 356.091 675.002 355.433 675.785 354.966C676.585 354.499 677.56 354.266 678.71 354.266V356.091H678.235C676.968 356.091 675.952 356.433 675.185 357.116C674.418 357.799 674.035 358.941 674.035 360.541V368.166H672.285V354.516H674.035V356.941ZM693.693 360.641C693.693 361.241 693.676 361.699 693.643 362.016H682.318C682.368 363.049 682.618 363.933 683.068 364.666C683.518 365.399 684.109 365.958 684.843 366.341C685.576 366.708 686.376 366.891 687.243 366.891C688.376 366.891 689.326 366.616 690.093 366.066C690.876 365.516 691.393 364.774 691.643 363.841H693.493C693.159 365.174 692.443 366.266 691.343 367.116C690.259 367.949 688.893 368.366 687.243 368.366C685.959 368.366 684.809 368.083 683.793 367.516C682.776 366.933 681.976 366.116 681.393 365.066C680.826 363.999 680.543 362.758 680.543 361.341C680.543 359.924 680.826 358.683 681.393 357.616C681.959 356.549 682.751 355.733 683.768 355.166C684.784 354.599 685.943 354.316 687.243 354.316C688.543 354.316 689.676 354.599 690.643 355.166C691.626 355.733 692.376 356.499 692.893 357.466C693.426 358.416 693.693 359.474 693.693 360.641ZM691.918 360.591C691.934 359.574 691.726 358.708 691.293 357.991C690.876 357.274 690.301 356.733 689.568 356.366C688.834 355.999 688.034 355.816 687.168 355.816C685.868 355.816 684.759 356.233 683.843 357.066C682.926 357.899 682.418 359.074 682.318 360.591H691.918ZM703.295 354.266C704.928 354.266 706.261 354.774 707.295 355.791C708.328 356.791 708.845 358.249 708.845 360.166V368.166H707.12V360.366C707.12 358.883 706.745 357.749 705.995 356.966C705.261 356.183 704.253 355.791 702.97 355.791C701.653 355.791 700.603 356.208 699.82 357.041C699.036 357.874 698.645 359.099 698.645 360.716V368.166H696.895V354.516H698.645V356.841C699.078 356.008 699.703 355.374 700.52 354.941C701.336 354.491 702.261 354.266 703.295 354.266ZM711.915 361.341C711.915 359.924 712.198 358.691 712.765 357.641C713.332 356.574 714.115 355.758 715.115 355.191C716.115 354.608 717.257 354.316 718.54 354.316C720.223 354.316 721.607 354.733 722.69 355.566C723.79 356.399 724.498 357.533 724.815 358.966H722.94C722.707 357.983 722.198 357.216 721.415 356.666C720.648 356.099 719.69 355.816 718.54 355.816C717.623 355.816 716.798 356.024 716.065 356.441C715.332 356.858 714.748 357.483 714.315 358.316C713.898 359.133 713.69 360.141 713.69 361.341C713.69 362.541 713.898 363.558 714.315 364.391C714.748 365.224 715.332 365.849 716.065 366.266C716.798 366.683 717.623 366.891 718.54 366.891C719.69 366.891 720.648 366.616 721.415 366.066C722.198 365.499 722.707 364.716 722.94 363.716H724.815C724.498 365.116 723.79 366.241 722.69 367.091C721.59 367.941 720.207 368.366 718.54 368.366C717.257 368.366 716.115 368.083 715.115 367.516C714.115 366.933 713.332 366.116 712.765 365.066C712.198 363.999 711.915 362.758 711.915 361.341ZM728.922 351.941C728.572 351.941 728.272 351.816 728.022 351.566C727.772 351.316 727.647 351.008 727.647 350.641C727.647 350.274 727.772 349.974 728.022 349.741C728.272 349.491 728.572 349.366 728.922 349.366C729.272 349.366 729.572 349.491 729.822 349.741C730.072 349.974 730.197 350.274 730.197 350.641C730.197 351.008 730.072 351.316 729.822 351.566C729.572 351.816 729.272 351.941 728.922 351.941ZM729.797 354.516V368.166H728.047V354.516H729.797ZM746.11 360.641C746.11 361.241 746.093 361.699 746.06 362.016H734.735C734.785 363.049 735.035 363.933 735.485 364.666C735.935 365.399 736.526 365.958 737.26 366.341C737.993 366.708 738.793 366.891 739.66 366.891C740.793 366.891 741.743 366.616 742.51 366.066C743.293 365.516 743.81 364.774 744.06 363.841H745.91C745.576 365.174 744.86 366.266 743.76 367.116C742.676 367.949 741.31 368.366 739.66 368.366C738.376 368.366 737.226 368.083 736.21 367.516C735.193 366.933 734.393 366.116 733.81 365.066C733.243 363.999 732.96 362.758 732.96 361.341C732.96 359.924 733.243 358.683 733.81 357.616C734.376 356.549 735.168 355.733 736.185 355.166C737.201 354.599 738.36 354.316 739.66 354.316C740.96 354.316 742.093 354.599 743.06 355.166C744.043 355.733 744.793 356.499 745.31 357.466C745.843 358.416 746.11 359.474 746.11 360.641ZM744.335 360.591C744.351 359.574 744.143 358.708 743.71 357.991C743.293 357.274 742.718 356.733 741.985 356.366C741.251 355.999 740.451 355.816 739.585 355.816C738.285 355.816 737.176 356.233 736.26 357.066C735.343 357.899 734.835 359.074 734.735 360.591H744.335ZM754.012 368.366C752.445 368.366 751.162 368.008 750.162 367.291C749.178 366.558 748.628 365.566 748.512 364.316H750.312C750.395 365.083 750.753 365.708 751.387 366.191C752.037 366.658 752.903 366.891 753.987 366.891C754.937 366.891 755.678 366.666 756.212 366.216C756.762 365.766 757.037 365.208 757.037 364.541C757.037 364.074 756.887 363.691 756.587 363.391C756.287 363.091 755.903 362.858 755.437 362.691C754.987 362.508 754.37 362.316 753.587 362.116C752.57 361.849 751.745 361.583 751.112 361.316C750.478 361.049 749.937 360.658 749.487 360.141C749.053 359.608 748.837 358.899 748.837 358.016C748.837 357.349 749.037 356.733 749.437 356.166C749.837 355.599 750.403 355.149 751.137 354.816C751.87 354.483 752.703 354.316 753.637 354.316C755.103 354.316 756.287 354.691 757.187 355.441C758.087 356.174 758.57 357.191 758.637 358.491H756.887C756.837 357.691 756.52 357.049 755.937 356.566C755.37 356.066 754.587 355.816 753.587 355.816C752.703 355.816 751.987 356.024 751.437 356.441C750.887 356.858 750.612 357.374 750.612 357.991C750.612 358.524 750.77 358.966 751.087 359.316C751.42 359.649 751.828 359.916 752.312 360.116C752.795 360.299 753.445 360.508 754.262 360.741C755.245 361.008 756.028 361.266 756.612 361.516C757.195 361.766 757.695 362.133 758.112 362.616C758.528 363.099 758.745 363.741 758.762 364.541C758.762 365.274 758.562 365.933 758.162 366.516C757.762 367.083 757.203 367.533 756.487 367.866C755.77 368.199 754.945 368.366 754.012 368.366ZM762.356 368.291C761.989 368.291 761.681 368.166 761.431 367.916C761.197 367.666 761.081 367.358 761.081 366.991C761.081 366.624 761.197 366.324 761.431 366.091C761.681 365.841 761.989 365.716 762.356 365.716C762.706 365.716 762.997 365.841 763.231 366.091C763.481 366.324 763.606 366.624 763.606 366.991C763.606 367.358 763.481 367.666 763.231 367.916C762.997 368.166 762.706 368.291 762.356 368.291Z" fill="#D9D9D9"/>
<path d="M133.154 67.3788V120.427H122.514V85.9228L108.302 120.427H100.246L85.9582 85.9228V120.427H75.3182V67.3788H87.4022L104.274 106.823L121.146 67.3788H133.154ZM162.37 121.111C158.316 121.111 154.668 120.224 151.426 118.451C148.183 116.627 145.624 114.068 143.75 110.775C141.926 107.481 141.014 103.681 141.014 99.3748C141.014 95.0681 141.951 91.2681 143.826 87.9748C145.751 84.6814 148.36 82.1481 151.654 80.3748C154.947 78.5508 158.62 77.6388 162.674 77.6388C166.727 77.6388 170.4 78.5508 173.694 80.3748C176.987 82.1481 179.571 84.6814 181.446 87.9748C183.371 91.2681 184.334 95.0681 184.334 99.3748C184.334 103.681 183.346 107.481 181.37 110.775C179.444 114.068 176.81 116.627 173.466 118.451C170.172 120.224 166.474 121.111 162.37 121.111ZM162.37 111.839C164.295 111.839 166.094 111.383 167.766 110.471C169.488 109.508 170.856 108.089 171.87 106.215C172.883 104.34 173.39 102.06 173.39 99.3748C173.39 95.3721 172.326 92.3068 170.198 90.1788C168.12 88.0001 165.562 86.9108 162.522 86.9108C159.482 86.9108 156.923 88.0001 154.846 90.1788C152.819 92.3068 151.806 95.3721 151.806 99.3748C151.806 103.377 152.794 106.468 154.77 108.647C156.796 110.775 159.33 111.839 162.37 111.839ZM189.403 99.2228C189.403 94.9668 190.239 91.1921 191.911 87.8988C193.633 84.6054 195.964 82.0721 198.903 80.2988C201.841 78.5254 205.109 77.6388 208.707 77.6388C211.443 77.6388 214.052 78.2468 216.535 79.4628C219.017 80.6281 220.993 82.1988 222.463 84.1748V64.1868H233.255V120.427H222.463V114.195C221.145 116.272 219.296 117.944 216.915 119.211C214.533 120.477 211.772 121.111 208.631 121.111C205.084 121.111 201.841 120.199 198.903 118.375C195.964 116.551 193.633 113.992 191.911 110.699C190.239 107.355 189.403 103.529 189.403 99.2228ZM222.539 99.3748C222.539 96.7908 222.032 94.5868 221.019 92.7628C220.005 90.8881 218.637 89.4694 216.915 88.5068C215.192 87.4934 213.343 86.9868 211.367 86.9868C209.391 86.9868 207.567 87.4681 205.895 88.4308C204.223 89.3934 202.855 90.8121 201.791 92.6868C200.777 94.5108 200.271 96.6894 200.271 99.2228C200.271 101.756 200.777 103.985 201.791 105.911C202.855 107.785 204.223 109.229 205.895 110.243C207.617 111.256 209.441 111.763 211.367 111.763C213.343 111.763 215.192 111.281 216.915 110.319C218.637 109.305 220.005 107.887 221.019 106.063C222.032 104.188 222.539 101.959 222.539 99.3748ZM259.758 121.111C256.313 121.111 253.222 120.503 250.486 119.287C247.75 118.02 245.572 116.323 243.95 114.195C242.38 112.067 241.518 109.711 241.366 107.127H252.082C252.285 108.748 253.07 110.091 254.438 111.155C255.857 112.219 257.605 112.751 259.682 112.751C261.709 112.751 263.28 112.345 264.394 111.535C265.56 110.724 266.142 109.685 266.142 108.419C266.142 107.051 265.433 106.037 264.014 105.379C262.646 104.669 260.442 103.909 257.402 103.099C254.261 102.339 251.677 101.553 249.65 100.743C247.674 99.9321 245.952 98.6908 244.482 97.0188C243.064 95.3468 242.354 93.0921 242.354 90.2548C242.354 87.9241 243.013 85.7961 244.33 83.8708C245.698 81.9454 247.624 80.4254 250.106 79.3108C252.64 78.1961 255.604 77.6388 258.998 77.6388C264.014 77.6388 268.017 78.9054 271.006 81.4388C273.996 83.9214 275.642 87.2908 275.946 91.5468H265.762C265.61 89.8748 264.901 88.5574 263.634 87.5948C262.418 86.5814 260.772 86.0748 258.694 86.0748C256.769 86.0748 255.274 86.4294 254.21 87.1388C253.197 87.8481 252.69 88.8361 252.69 90.1028C252.69 91.5214 253.4 92.6108 254.818 93.3708C256.237 94.0801 258.441 94.8148 261.43 95.5748C264.47 96.3348 266.978 97.1201 268.954 97.9308C270.93 98.7414 272.628 100.008 274.046 101.731C275.516 103.403 276.276 105.632 276.326 108.419C276.326 110.851 275.642 113.029 274.274 114.955C272.957 116.88 271.032 118.4 268.498 119.515C266.016 120.579 263.102 121.111 259.758 121.111ZM324.2 98.4628C324.2 99.9828 324.099 101.351 323.896 102.567H293.116C293.37 105.607 294.434 107.988 296.308 109.711C298.183 111.433 300.488 112.295 303.224 112.295C307.176 112.295 309.988 110.597 311.66 107.203H323.136C321.92 111.256 319.59 114.6 316.144 117.235C312.699 119.819 308.468 121.111 303.452 121.111C299.399 121.111 295.751 120.224 292.508 118.451C289.316 116.627 286.808 114.068 284.984 110.775C283.211 107.481 282.324 103.681 282.324 99.3748C282.324 95.0174 283.211 91.1921 284.984 87.8988C286.758 84.6054 289.24 82.0721 292.432 80.2988C295.624 78.5254 299.298 77.6388 303.452 77.6388C307.455 77.6388 311.027 78.5001 314.168 80.2228C317.36 81.9454 319.818 84.4028 321.54 87.5948C323.314 90.7361 324.2 94.3588 324.2 98.4628ZM313.18 95.4228C313.13 92.6868 312.142 90.5081 310.216 88.8868C308.291 87.2148 305.935 86.3788 303.148 86.3788C300.514 86.3788 298.284 87.1894 296.46 88.8108C294.687 90.3814 293.598 92.5854 293.192 95.4228H313.18ZM355.299 77.7148C360.315 77.7148 364.368 79.3108 367.459 82.5028C370.549 85.6441 372.095 90.0521 372.095 95.7268V120.427H361.455V97.1708C361.455 93.8268 360.619 91.2681 358.947 89.4948C357.275 87.6708 354.995 86.7588 352.107 86.7588C349.168 86.7588 346.837 87.6708 345.115 89.4948C343.443 91.2681 342.607 93.8268 342.607 97.1708V120.427H331.967V78.3228H342.607V83.5668C344.025 81.7428 345.824 80.3241 348.003 79.3108C350.232 78.2468 352.664 77.7148 355.299 77.7148ZM397.738 93.8268C397.738 88.6081 398.903 83.9468 401.234 79.8428C403.615 75.6881 406.833 72.4708 410.886 70.1908C414.99 67.8601 419.575 66.6948 424.642 66.6948C430.57 66.6948 435.763 68.2148 440.222 71.2548C444.681 74.2948 447.797 78.5001 449.57 83.8708H437.334C436.118 81.3374 434.395 79.4374 432.166 78.1708C429.987 76.9041 427.454 76.2708 424.566 76.2708C421.475 76.2708 418.714 77.0054 416.282 78.4748C413.901 79.8934 412.026 81.9201 410.658 84.5548C409.341 87.1894 408.682 90.2801 408.682 93.8268C408.682 97.3228 409.341 100.413 410.658 103.099C412.026 105.733 413.901 107.785 416.282 109.255C418.714 110.673 421.475 111.383 424.566 111.383C427.454 111.383 429.987 110.749 432.166 109.483C434.395 108.165 436.118 106.24 437.334 103.707H449.57C447.797 109.128 444.681 113.359 440.222 116.399C435.814 119.388 430.621 120.883 424.642 120.883C419.575 120.883 414.99 119.743 410.886 117.463C406.833 115.132 403.615 111.915 401.234 107.811C398.903 103.707 397.738 99.0454 397.738 93.8268ZM498.406 78.3228V120.427H487.69V115.107C486.322 116.931 484.523 118.375 482.294 119.439C480.115 120.452 477.734 120.959 475.15 120.959C471.857 120.959 468.943 120.275 466.41 118.907C463.877 117.488 461.875 115.436 460.406 112.751C458.987 110.015 458.278 106.772 458.278 103.023V78.3228H468.918V101.503C468.918 104.847 469.754 107.431 471.426 109.255C473.098 111.028 475.378 111.915 478.266 111.915C481.205 111.915 483.51 111.028 485.182 109.255C486.854 107.431 487.69 104.847 487.69 101.503V78.3228H498.406ZM519.544 84.8588C520.912 82.6294 522.685 80.8814 524.864 79.6148C527.093 78.3481 529.627 77.7148 532.464 77.7148V88.8868H529.652C526.308 88.8868 523.775 89.6721 522.052 91.2428C520.38 92.8134 519.544 95.5494 519.544 99.4508V120.427H508.904V78.3228H519.544V84.8588ZM550.271 84.8588C551.639 82.6294 553.412 80.8814 555.591 79.6148C557.82 78.3481 560.353 77.7148 563.191 77.7148V88.8868H560.379C557.035 88.8868 554.501 89.6721 552.779 91.2428C551.107 92.8134 550.271 95.5494 550.271 99.4508V120.427H539.631V78.3228H550.271V84.8588ZM609.497 98.4628C609.497 99.9828 609.396 101.351 609.193 102.567H578.413C578.667 105.607 579.731 107.988 581.605 109.711C583.48 111.433 585.785 112.295 588.521 112.295C592.473 112.295 595.285 110.597 596.957 107.203H608.433C607.217 111.256 604.887 114.6 601.441 117.235C597.996 119.819 593.765 121.111 588.749 121.111C584.696 121.111 581.048 120.224 577.805 118.451C574.613 116.627 572.105 114.068 570.281 110.775C568.508 107.481 567.621 103.681 567.621 99.3748C567.621 95.0174 568.508 91.1921 570.281 87.8988C572.055 84.6054 574.537 82.0721 577.729 80.2988C580.921 78.5254 584.595 77.6388 588.749 77.6388C592.752 77.6388 596.324 78.5001 599.465 80.2228C602.657 81.9454 605.115 84.4028 606.837 87.5948C608.611 90.7361 609.497 94.3588 609.497 98.4628ZM598.477 95.4228C598.427 92.6868 597.439 90.5081 595.513 88.8868C593.588 87.2148 591.232 86.3788 588.445 86.3788C585.811 86.3788 583.581 87.1894 581.757 88.8108C579.984 90.3814 578.895 92.5854 578.489 95.4228H598.477ZM640.596 77.7148C645.612 77.7148 649.665 79.3108 652.756 82.5028C655.846 85.6441 657.392 90.0521 657.392 95.7268V120.427H646.752V97.1708C646.752 93.8268 645.916 91.2681 644.244 89.4948C642.572 87.6708 640.292 86.7588 637.404 86.7588C634.465 86.7588 632.134 87.6708 630.412 89.4948C628.74 91.2681 627.904 93.8268 627.904 97.1708V120.427H617.264V78.3228H627.904V83.5668C629.322 81.7428 631.121 80.3241 633.3 79.3108C635.529 78.2468 637.961 77.7148 640.596 77.7148ZM664.774 99.3748C664.774 95.0174 665.66 91.2174 667.434 87.9748C669.207 84.6814 671.664 82.1481 674.806 80.3748C677.947 78.5508 681.544 77.6388 685.598 77.6388C690.816 77.6388 695.123 78.9561 698.518 81.5908C701.963 84.1748 704.268 87.8228 705.434 92.5348H693.958C693.35 90.7108 692.311 89.2921 690.842 88.2788C689.423 87.2148 687.65 86.6828 685.522 86.6828C682.482 86.6828 680.075 87.7974 678.302 90.0268C676.528 92.2054 675.642 95.3214 675.642 99.3748C675.642 103.377 676.528 106.493 678.302 108.723C680.075 110.901 682.482 111.991 685.522 111.991C689.828 111.991 692.64 110.065 693.958 106.215H705.434C704.268 110.775 701.963 114.397 698.518 117.083C695.072 119.768 690.766 121.111 685.598 121.111C681.544 121.111 677.947 120.224 674.806 118.451C671.664 116.627 669.207 114.093 667.434 110.851C665.66 107.557 664.774 103.732 664.774 99.3748ZM753.508 78.3228L727.44 140.339H716.116L725.236 119.363L708.364 78.3228H720.296L731.164 107.735L742.184 78.3228H753.508Z" fill="url(#paint1_linear_442_39)"/>
<path d="M457.87 179.588V189.799H441.063V242.661H428.412V189.799H411.604V179.588H457.87ZM479.752 200.371C481.378 197.72 483.487 195.642 486.077 194.136C488.728 192.63 491.74 191.877 495.113 191.877V205.16H491.77C487.794 205.16 484.782 206.094 482.734 207.962C480.746 209.829 479.752 213.082 479.752 217.721V242.661H467.101V192.6H479.752V200.371ZM500.381 217.45C500.381 212.389 501.375 207.901 503.363 203.986C505.412 200.07 508.153 197.058 511.586 194.949C515.08 192.841 518.966 191.787 523.243 191.787C526.978 191.787 530.231 192.54 533.002 194.046C535.834 195.552 538.093 197.449 539.78 199.739V192.6H552.521V242.661H539.78V235.342C538.153 237.691 535.894 239.649 533.002 241.215C530.171 242.721 526.888 243.474 523.153 243.474C518.936 243.474 515.08 242.39 511.586 240.221C508.153 238.053 505.412 235.01 503.363 231.095C501.375 227.119 500.381 222.57 500.381 217.45ZM539.78 217.63C539.78 214.558 539.177 211.938 537.972 209.769C536.768 207.54 535.141 205.853 533.093 204.709C531.045 203.504 528.846 202.901 526.496 202.901C524.147 202.901 521.978 203.474 519.99 204.618C518.002 205.763 516.376 207.45 515.111 209.679C513.906 211.847 513.303 214.438 513.303 217.45C513.303 220.462 513.906 223.113 515.111 225.402C516.376 227.631 518.002 229.348 519.99 230.552C522.038 231.757 524.207 232.36 526.496 232.36C528.846 232.36 531.045 231.787 533.093 230.643C535.141 229.438 536.768 227.751 537.972 225.582C539.177 223.353 539.78 220.703 539.78 217.63ZM561.624 217.63C561.624 212.45 562.678 207.931 564.786 204.076C566.895 200.16 569.817 197.148 573.552 195.04C577.287 192.871 581.564 191.787 586.383 191.787C592.588 191.787 597.709 193.353 601.745 196.485C605.841 199.558 608.582 203.895 609.968 209.498H596.323C595.6 207.329 594.365 205.642 592.618 204.437C590.931 203.172 588.823 202.54 586.293 202.54C582.678 202.54 579.817 203.865 577.708 206.516C575.6 209.106 574.546 212.811 574.546 217.63C574.546 222.39 575.6 226.095 577.708 228.745C579.817 231.336 582.678 232.631 586.293 232.631C591.413 232.631 594.757 230.342 596.323 225.763H609.968C608.582 231.185 605.841 235.492 601.745 238.685C597.648 241.878 592.528 243.474 586.383 243.474C581.564 243.474 577.287 242.42 573.552 240.312C569.817 238.143 566.895 235.131 564.786 231.275C562.678 227.36 561.624 222.811 561.624 217.63ZM648.875 242.661L631.887 221.335V242.661H619.236V175.792H631.887V213.835L648.694 192.6H665.14L643.092 217.721L665.321 242.661H648.875ZM718.544 216.546C718.544 218.353 718.423 219.98 718.182 221.426H681.585C681.886 225.04 683.151 227.872 685.38 229.92C687.609 231.968 690.35 232.992 693.603 232.992C698.302 232.992 701.646 230.974 703.634 226.938H717.279C715.833 231.757 713.062 235.733 708.965 238.866C704.869 241.938 699.839 243.474 693.875 243.474C689.055 243.474 684.718 242.42 680.862 240.312C677.067 238.143 674.085 235.101 671.916 231.185C669.808 227.269 668.754 222.751 668.754 217.63C668.754 212.45 669.808 207.901 671.916 203.986C674.025 200.07 676.977 197.058 680.772 194.949C684.567 192.841 688.935 191.787 693.875 191.787C698.634 191.787 702.881 192.811 706.616 194.859C710.411 196.907 713.333 199.829 715.381 203.624C717.49 207.359 718.544 211.667 718.544 216.546ZM705.441 212.932C705.381 209.679 704.206 207.088 701.917 205.16C699.628 203.172 696.826 202.178 693.513 202.178C690.381 202.178 687.73 203.142 685.561 205.07C683.453 206.937 682.157 209.558 681.676 212.932H705.441ZM740.429 200.371C742.055 197.72 744.164 195.642 746.754 194.136C749.405 192.63 752.417 191.877 755.79 191.877V205.16H752.447C748.471 205.16 745.459 206.094 743.411 207.962C741.423 209.829 740.429 213.082 740.429 217.721V242.661H727.778V192.6H740.429V200.371Z" fill="url(#paint2_linear_442_39)"/>
<path d="M848.308 78.8965V323.776C848.308 347.687 865.265 366.99 886.271 366.99H1101.39" stroke="url(#paint3_linear_442_39)" stroke-width="24.6445" stroke-miterlimit="10" stroke-linecap="round" stroke-linejoin="round"/>
<path d="M886.271 294.966L944.353 217.757C953.97 205.081 971.053 204.217 981.43 216.173L993.451 229.857C1003.83 241.669 1020.91 240.949 1030.53 228.272L1088.74 150.919" stroke="url(#paint4_linear_442_39)" stroke-width="24.6445" stroke-miterlimit="10" stroke-linecap="round" stroke-linejoin="round"/>
</g>
<defs>
<filter id="filter0_d_442_39" x="72.1546" y="50.0869" width="1057.71" height="352.039" filterUnits="userSpaceOnUse" color-interpolation-filters="sRGB">
<feFlood flood-opacity="0" result="BackgroundImageFix"/>
<feColorMatrix in="SourceAlpha" type="matrix" values="0 0 0 0 0 0 0 0 0 0 0 0 0 0 0 0 0 0 127 0" result="hardAlpha"/>
<feOffset dy="3.16353"/>
<feGaussianBlur stdDeviation="1.58176"/>
<feComposite in2="hardAlpha" operator="out"/>
<feColorMatrix type="matrix" values="0 0 0 0 0 0 0 0 0 0 0 0 0 0 0 0 0 0 0.5 0"/>
<feBlend mode="normal" in2="BackgroundImageFix" result="effect1_dropShadow_442_39"/>
<feBlend mode="normal" in="SourceGraphic" in2="effect1_dropShadow_442_39" result="shape"/>
</filter>
<linearGradient id="paint0_linear_442_39" x1="1273.5" y1="57.4131" x2="495.566" y2="803.478" gradientUnits="userSpaceOnUse">
<stop stop-color="#121212" stop-opacity="0.68"/>
<stop offset="0.575545" stop-color="#247940" stop-opacity="0.71"/>
<stop offset="0.964" stop-color="#121212" stop-opacity="0.68"/>
</linearGradient>
<linearGradient id="paint1_linear_442_39" x1="54" y1="117.003" x2="753.907" y2="128.2" gradientUnits="userSpaceOnUse">
<stop stop-color="#00CE2C"/>
<stop offset="0.492615" stop-color="#AEDF23"/>
<stop offset="1" stop-color="#A3DC00"/>
</linearGradient>
<linearGradient id="paint2_linear_442_39" x1="331" y1="223.237" x2="758.088" y2="227.406" gradientUnits="userSpaceOnUse">
<stop stop-color="#00CE2C"/>
<stop offset="0.492615" stop-color="#AEDF23"/>
<stop offset="1" stop-color="#A3DC00"/>
</linearGradient>
<linearGradient id="paint3_linear_442_39" x1="974.849" y1="78.8965" x2="974.849" y2="366.99" gradientUnits="userSpaceOnUse">
<stop stop-color="#2ADD50"/>
<stop offset="1" stop-color="#AFDD2A"/>
</linearGradient>
<linearGradient id="paint4_linear_442_39" x1="987.504" y1="150.919" x2="987.504" y2="294.966" gradientUnits="userSpaceOnUse">
<stop stop-color="#2ADD50"/>
<stop offset="1" stop-color="#AFDD2A"/>
</linearGradient>
</defs>
</svg>
