<svg width="35" height="35" viewBox="0 0 23 23" fill="none" xmlns="http://www.w3.org/2000/svg">
<path d="M11.5009 8.62508C10.7384 8.62508 10.0072 8.92798 9.46799 9.46715C8.92882 10.0063 8.62592 10.7376 8.62592 11.5001C8.62592 12.2626 8.92882 12.9938 9.46799 13.533C10.0072 14.0722 10.7384 14.3751 11.5009 14.3751C12.2634 14.3751 12.9947 14.0722 13.5338 13.533C14.073 12.9938 14.3759 12.2626 14.3759 11.5001C14.3759 10.7376 14.073 10.0063 13.5338 9.46715C12.9947 8.92798 12.2634 8.62508 11.5009 8.62508ZM11.5009 6.70841C12.7717 6.70841 13.9905 7.21325 14.8891 8.11186C15.7877 9.01047 16.2926 10.2293 16.2926 11.5001C16.2926 12.7709 15.7877 13.9897 14.8891 14.8883C13.9905 15.7869 12.7717 16.2917 11.5009 16.2917C10.2301 16.2917 9.01131 15.7869 8.1127 14.8883C7.21409 13.9897 6.70925 12.7709 6.70925 11.5001C6.70925 10.2293 7.21409 9.01047 8.1127 8.11186C9.01131 7.21325 10.2301 6.70841 11.5009 6.70841ZM17.7301 6.46883C17.7301 6.78654 17.6039 7.09123 17.3792 7.31589C17.1546 7.54054 16.8499 7.66675 16.5322 7.66675C16.2145 7.66675 15.9098 7.54054 15.6851 7.31589C15.4605 7.09123 15.3343 6.78654 15.3343 6.46883C15.3343 6.15112 15.4605 5.84643 15.6851 5.62178C15.9098 5.39712 16.2145 5.27091 16.5322 5.27091C16.8499 5.27091 17.1546 5.39712 17.3792 5.62178C17.6039 5.84643 17.7301 6.15112 17.7301 6.46883ZM11.5009 3.83341C9.13 3.83341 8.74283 3.84012 7.63979 3.889C6.88846 3.92446 6.38438 4.02508 5.91671 4.20716C5.52555 4.35127 5.17182 4.58152 4.88171 4.88087C4.58201 5.17088 4.35143 5.52462 4.20704 5.91587C4.02496 6.38546 3.92433 6.88858 3.88983 7.63896C3.84 8.69696 3.83329 9.06687 3.83329 11.5001C3.83329 13.872 3.84 14.2582 3.88888 15.3612C3.92433 16.1116 4.02496 16.6166 4.20608 17.0833C4.369 17.5002 4.56067 17.8002 4.87883 18.1183C5.20179 18.4403 5.50175 18.633 5.91383 18.792C6.38725 18.9751 6.89133 19.0767 7.63883 19.1112C8.69683 19.161 9.06675 19.1667 11.5 19.1667C13.8718 19.1667 14.258 19.16 15.3611 19.1112C16.1105 19.0757 16.6146 18.9751 17.0832 18.794C17.4744 18.6499 17.8281 18.4196 18.1182 18.1202C18.4412 17.7982 18.6338 17.4983 18.7929 17.0852C18.975 16.6137 19.0765 16.1097 19.111 15.3602C19.1609 14.3032 19.1666 13.9323 19.1666 11.5001C19.1666 9.12916 19.1599 8.742 19.111 7.63896C19.0756 6.88954 18.974 6.38354 18.7929 5.91587C18.6488 5.52471 18.4185 5.17098 18.1192 4.88087C17.8292 4.58118 17.4754 4.35059 17.0842 4.20621C16.6146 4.02412 16.1105 3.9235 15.3611 3.889C14.304 3.83916 13.9341 3.83341 11.5 3.83341M11.5 1.91675C14.1038 1.91675 14.4286 1.92633 15.4512 1.97425C16.4708 2.02216 17.1666 2.18221 17.777 2.41987C18.4095 2.66329 18.9424 2.99296 19.4752 3.52483C19.9627 4.00374 20.3398 4.58328 20.5802 5.223C20.8169 5.83346 20.9779 6.52921 21.0258 7.54983C21.0708 8.57141 21.0833 8.89629 21.0833 11.5001C21.0833 14.1039 21.0737 14.4287 21.0258 15.4503C20.9779 16.4719 20.8169 17.1657 20.5802 17.7772C20.3398 18.4169 19.9627 18.9964 19.4752 19.4753C18.9963 19.9628 18.4168 20.3399 17.777 20.5803C17.1666 20.817 16.4708 20.978 15.4512 21.0259C14.4286 21.071 14.1038 21.0834 11.5 21.0834C8.89617 21.0834 8.57129 21.0738 7.54875 21.0259C6.52908 20.978 5.83429 20.817 5.22288 20.5803C4.58316 20.3399 4.00362 19.9628 3.52471 19.4753C3.03721 18.9964 2.66012 18.4169 2.41975 17.7772C2.18208 17.1667 2.02204 16.471 1.97413 15.4503C1.92813 14.4287 1.91663 14.1039 1.91663 11.5001C1.91663 8.89629 1.92621 8.57141 1.97413 7.54983C2.02204 6.52825 2.18208 5.83441 2.41975 5.223C2.66012 4.58328 3.03721 4.00374 3.52471 3.52483C4.00362 3.03733 4.58316 2.66024 5.22288 2.41987C5.83333 2.18221 6.52813 2.02216 7.54875 1.97425C8.57225 1.92921 8.89713 1.91675 11.5009 1.91675" fill="currentColor"/>
</svg>
